<?xml version="1.0" encoding="UTF-8" standalone="no"?>
<!-- Created with Inkscape (http://www.inkscape.org/) -->

<svg
   xmlns:dc="http://purl.org/dc/elements/1.1/"
   xmlns:cc="http://creativecommons.org/ns#"
   xmlns:rdf="http://www.w3.org/1999/02/22-rdf-syntax-ns#"
   xmlns:svg="http://www.w3.org/2000/svg"
   xmlns="http://www.w3.org/2000/svg"
   xmlns:sodipodi="http://sodipodi.sourceforge.net/DTD/sodipodi-0.dtd"
   xmlns:inkscape="http://www.inkscape.org/namespaces/inkscape"
   width="850mm"
   height="2000mm"
   viewBox="0 0 3011.8111 7086.6141"
   id="svg2"
   version="1.1"
   inkscape:version="0.92.2 (5c3e80d, 2017-08-06)"
   sodipodi:docname="Banner.svg"
   inkscape:export-filename="/home/anxhelo/Desktop/Banner.png"
   inkscape:export-xdpi="96"
   inkscape:export-ydpi="96">
  <sodipodi:namedview
     id="base"
     pagecolor="#ffffff"
     bordercolor="#666666"
     borderopacity="1.0"
     inkscape:pageopacity="0.0"
     inkscape:pageshadow="2"
     inkscape:zoom="0.074218748"
     inkscape:cx="-92.156474"
     inkscape:cy="2890.1404"
     inkscape:document-units="px"
     inkscape:current-layer="layer4"
     showgrid="false"
     showguides="false"
     inkscape:guide-bbox="true"
     inkscape:window-width="1366"
     inkscape:window-height="713"
     inkscape:window-x="0"
     inkscape:window-y="0"
     inkscape:window-maximized="1">
    <sodipodi:guide
       inkscape:locked="false"
       id="guide4136"
       orientation="0,1"
       position="1517.1428,6342.857" />
    <sodipodi:guide
       inkscape:locked="false"
       id="guide4387"
       orientation="1,0"
       position="476.78571,6462.1427" />
    <sodipodi:guide
       inkscape:locked="false"
       id="guide4389"
       orientation="1,0"
       position="2320.9999,7619.9998" />
    <sodipodi:guide
       inkscape:locked="false"
       id="guide4397"
       orientation="0,1"
       position="639.99999,7384.2856" />
    <sodipodi:guide
       inkscape:locked="false"
       id="guide4399"
       orientation="0,1"
       position="612.14285,7411.9641" />
    <sodipodi:guide
       inkscape:locked="false"
       id="guide4669"
       orientation="0,1"
       position="926.42856,7435.7141" />
    <sodipodi:guide
       inkscape:locked="false"
       id="guide4671"
       orientation="1,0"
       position="901.42856,7292.857" />
    <sodipodi:guide
       inkscape:locked="false"
       id="guide4673"
       orientation="1,0"
       position="1079.2857,7261.4284" />
    <sodipodi:guide
       inkscape:locked="false"
       id="guide4675"
       orientation="0,1"
       position="2133.75,7293.4998" />
    <sodipodi:guide
       inkscape:locked="false"
       id="guide4679"
       orientation="1,0"
       position="972.49998,6142.4998" />
    <sodipodi:guide
       inkscape:locked="false"
       id="guide4681"
       orientation="1,0"
       position="1007.5,6148.7498" />
    <sodipodi:guide
       inkscape:locked="false"
       id="guide4683"
       orientation="0,1"
       position="1335.5937,7354.0623" />
    <sodipodi:guide
       inkscape:locked="false"
       id="guide4685"
       orientation="0,1"
       position="1335.791,7372.2288" />
    <sodipodi:guide
       inkscape:locked="false"
       id="guide4878"
       orientation="1,0"
       position="1309.5617,7400.2258" />
    <sodipodi:guide
       inkscape:locked="false"
       id="guide4880"
       orientation="1,0"
       position="1480.5048,5434.2262" />
    <sodipodi:guide
       inkscape:locked="false"
       id="guide4901"
       orientation="1,0"
       position="1325.9687,7396.953" />
    <sodipodi:guide
       inkscape:locked="false"
       id="guide4903"
       orientation="1,0"
       position="1344.1406,7397.3748" />
    <sodipodi:guide
       inkscape:locked="false"
       id="guide4941"
       orientation="0,1"
       position="1334.9687,7408.0155" />
    <sodipodi:guide
       inkscape:locked="false"
       id="guide4943"
       orientation="0,1"
       position="1335.3593,7389.8905" />
    <sodipodi:guide
       inkscape:locked="false"
       id="guide4945"
       orientation="1,0"
       position="1353.125,7368.8748" />
    <sodipodi:guide
       inkscape:locked="false"
       id="guide4947"
       orientation="0,1"
       position="1335.3437,7335.4998" />
    <sodipodi:guide
       inkscape:locked="false"
       id="guide4949"
       orientation="0,1"
       position="1335.5781,7317.3905" />
    <sodipodi:guide
       inkscape:locked="false"
       id="guide4951"
       orientation="0,1"
       position="1030.8125,6201.8748" />
    <sodipodi:guide
       inkscape:locked="false"
       id="guide4953"
       orientation="0,1"
       position="1075.3326,6045.3209" />
    <sodipodi:guide
       inkscape:locked="false"
       id="guide4977"
       orientation="1,0"
       position="1708,6987.9998" />
    <sodipodi:guide
       inkscape:locked="false"
       id="guide4979"
       orientation="1,0"
       position="1908,1340" />
    <sodipodi:guide
       inkscape:locked="false"
       id="guide4985"
       orientation="0,1"
       position="2125.25,7447.2498" />
    <sodipodi:guide
       inkscape:locked="false"
       id="guide4991"
       orientation="1,0"
       position="316.99999,6598.6874" />
    <sodipodi:guide
       inkscape:locked="false"
       id="guide4993"
       orientation="1,0"
       position="2537.4526,6648.5713" />
    <sodipodi:guide
       inkscape:locked="false"
       id="guide5006"
       orientation="0,1"
       position="1151.0526,347.36842" />
    <sodipodi:guide
       inkscape:locked="false"
       id="guide5296"
       orientation="0,1"
       position="1378.5156,5511.7188" />
    <sodipodi:guide
       inkscape:locked="false"
       id="guide5298"
       orientation="0,1"
       position="1413.6719,5376.1719" />
    <sodipodi:guide
       inkscape:locked="false"
       id="guide5300"
       orientation="1,0"
       position="1367.5781,5466.6016" />
    <sodipodi:guide
       inkscape:locked="false"
       id="guide5327"
       orientation="1,0"
       position="1390.5,5440.9999" />
    <sodipodi:guide
       inkscape:locked="false"
       id="guide5329"
       orientation="1,0"
       position="1459.125,5437.3749" />
    <sodipodi:guide
       inkscape:locked="false"
       id="guide5362"
       orientation="1,0"
       position="733.24999,4645.4999" />
    <sodipodi:guide
       inkscape:locked="false"
       id="guide5364"
       orientation="1,0"
       position="2148.8975,4600.0831" />
    <sodipodi:guide
       position="1174.9669,842.1063"
       orientation="0,1"
       id="guide2688"
       inkscape:locked="false" />
  </sodipodi:namedview>
  <defs
     id="defs4">
    <inkscape:path-effect
       is_visible="true"
       id="path-effect5400"
       effect="spiro" />
    <inkscape:path-effect
       is_visible="true"
       id="path-effect5354"
       effect="spiro" />
    <inkscape:path-effect
       is_visible="true"
       id="path-effect5308"
       effect="spiro" />
    <inkscape:path-effect
       is_visible="true"
       id="path-effect5304"
       effect="spiro" />
    <inkscape:path-effect
       is_visible="true"
       id="path-effect4989"
       effect="spiro" />
    <inkscape:path-effect
       is_visible="true"
       id="path-effect4983"
       effect="spiro" />
    <clipPath
       clipPathUnits="userSpaceOnUse"
       id="clipPath5101">
      <path
         d="M 0,500 H 400 V 0 H 0 Z"
         id="path5103"
         inkscape:connector-curvature="0" />
    </clipPath>
    <rect
       id="p"
       width="8"
       height="8"
       x="0"
       y="0" />
    <clipPath
       clipPathUnits="userSpaceOnUse"
       id="clipPath8255">
      <path
         d="M 0,595.28 H 841.89 V 0 H 0 Z"
         id="path8253"
         inkscape:connector-curvature="0" />
    </clipPath>
    <clipPath
       clipPathUnits="userSpaceOnUse"
       id="clipPath8263">
      <path
         d="M 528.316,104.829 H 686.928 V 85.0493 H 528.316 Z"
         id="path8261"
         inkscape:connector-curvature="0" />
    </clipPath>
    <clipPath
       clipPathUnits="userSpaceOnUse"
       id="clipPath8355">
      <path
         d="m 568.164,236.337 h 79.307 v -22.376 h -79.307 z"
         id="path8353"
         inkscape:connector-curvature="0" />
    </clipPath>
    <clipPath
       clipPathUnits="userSpaceOnUse"
       id="clipPath8371">
      <path
         d="M 495.38,384.219 H 653.993 V 363.917 H 495.38 Z"
         id="path8369"
         inkscape:connector-curvature="0" />
    </clipPath>
    <clipPath
       clipPathUnits="userSpaceOnUse"
       id="clipPath8725">
      <path
         d="M 0,595.28 H 841.89 V 0 H 0 Z"
         id="path8723"
         inkscape:connector-curvature="0" />
    </clipPath>
    <clipPath
       clipPathUnits="userSpaceOnUse"
       id="clipPath8263-6">
      <path
         d="M 528.316,104.829 H 686.928 V 85.0493 H 528.316 Z"
         id="path8261-2"
         inkscape:connector-curvature="0" />
    </clipPath>
    <clipPath
       clipPathUnits="userSpaceOnUse"
       id="clipPath8355-5">
      <path
         d="m 568.164,236.337 h 79.307 v -22.376 h -79.307 z"
         id="path8353-4"
         inkscape:connector-curvature="0" />
    </clipPath>
    <clipPath
       clipPathUnits="userSpaceOnUse"
       id="clipPath8355-4">
      <path
         d="m 568.164,236.337 h 79.307 v -22.376 h -79.307 z"
         id="path8353-9"
         inkscape:connector-curvature="0" />
    </clipPath>
    <clipPath
       clipPathUnits="userSpaceOnUse"
       id="clipPath8355-49">
      <path
         d="m 568.164,236.337 h 79.307 v -22.376 h -79.307 z"
         id="path8353-0"
         inkscape:connector-curvature="0" />
    </clipPath>
    <clipPath
       clipPathUnits="userSpaceOnUse"
       id="clipPath8371-2">
      <path
         d="M 495.38,384.219 H 653.993 V 363.917 H 495.38 Z"
         id="path8369-8"
         inkscape:connector-curvature="0" />
    </clipPath>
  </defs>
  <metadata
     id="metadata7">
    <rdf:RDF>
      <cc:Work
         rdf:about="">
        <dc:format>image/svg+xml</dc:format>
        <dc:type
           rdf:resource="http://purl.org/dc/dcmitype/StillImage" />
        <dc:title></dc:title>
      </cc:Work>
    </rdf:RDF>
  </metadata>
  <g
     style="display:inline"
     inkscape:label="Layer 2"
     id="layer2"
     inkscape:groupmode="layer">
    <rect
       y="-6.6523608e-05"
       x="0"
       height="7086.6143"
       width="3011.811"
       id="rect4255"
       style="opacity:1;fill:#51b749;fill-opacity:1;stroke:none;stroke-width:0.10299496;stroke-miterlimit:4;stroke-dasharray:none;stroke-opacity:1" />
    <flowRoot
       style="font-style:normal;font-weight:normal;font-size:12.5px;line-height:125%;font-family:sans-serif;letter-spacing:0px;word-spacing:0px;fill:#000000;fill-opacity:1;stroke:none;stroke-width:1px;stroke-linecap:butt;stroke-linejoin:miter;stroke-opacity:1"
       id="flowRoot5620"
       xml:space="preserve"><flowRegion
         id="flowRegion5622"><rect
           y="1844.0803"
           x="806.5437"
           height="16.572815"
           width="65.186409"
           id="rect5624" /></flowRegion><flowPara
         id="flowPara5626" /></flowRoot>  </g>
  <g
     inkscape:label="Layer 4"
     id="layer5"
     inkscape:groupmode="layer" />
  <g
     inkscape:label="text"
     id="layer4"
     inkscape:groupmode="layer">
    <g
       id="g1457"
       transform="translate(86.953878)">
      <path
         style="display:inline;fill:none;fill-rule:evenodd;stroke:#ffffff;stroke-width:14.65106392;stroke-linecap:butt;stroke-linejoin:round;stroke-miterlimit:4;stroke-dasharray:none;stroke-opacity:1"
         d="m 1331.2167,2312.5315 h 104.7335 l 5.2623,5.548 c 7.9737,8.4066 15.7985,16.9561 24,25.1407 3.6059,3.5985 7.1844,7.2245 10.735,10.8775 3.0215,3.1086 6.0228,6.2369 9.0083,9.3801 3.931,4.1387 7.8346,8.3033 11.7105,12.4936 v 135.1508 h -165.4496 z"
         id="path5302"
         inkscape:path-effect="#path-effect5304"
         inkscape:original-d="m 1331.2167,2312.5315 h 104.7335 l 5.2623,5.548 c 13.4455,13.8533 19.5925,20.2793 24,25.1407 l 10.735,10.8775 9.0083,9.3801 11.7105,12.4936 v 135.1508 h -165.4496 z"
         inkscape:connector-curvature="0"
         sodipodi:nodetypes="cccccccccc" />
      <path
         style="display:inline;fill:none;fill-rule:evenodd;stroke:#ffffff;stroke-width:15.93402576;stroke-linecap:butt;stroke-linejoin:round;stroke-miterlimit:4;stroke-dasharray:none;stroke-opacity:1"
         d="m 1427.4648,2317.9599 v 66.126 h 66.126"
         id="path5306"
         inkscape:path-effect="#path-effect5308"
         inkscape:original-d="m 1427.4648,2317.9599 v 66.126 h 66.126"
         inkscape:connector-curvature="0" />
      <rect
         style="display:inline;opacity:1;fill:#ffffff;fill-opacity:1;stroke:none;stroke-width:10;stroke-linecap:round;stroke-linejoin:round;stroke-miterlimit:4;stroke-dasharray:none;stroke-dashoffset:0;stroke-opacity:1"
         id="rect5310"
         width="109.73387"
         height="17.530556"
         x="1359.0746"
         y="2414.4485" />
      <rect
         style="display:inline;opacity:1;fill:#ffffff;fill-opacity:1;stroke:none;stroke-width:10;stroke-linecap:round;stroke-linejoin:round;stroke-miterlimit:4;stroke-dasharray:none;stroke-dashoffset:0;stroke-opacity:1"
         id="rect5310-7"
         width="109.672"
         height="17.530556"
         x="1359.1055"
         y="2448.9392" />
      <text
         xml:space="preserve"
         style="font-style:normal;font-weight:normal;font-size:12.5px;line-height:125%;font-family:sans-serif;letter-spacing:0px;word-spacing:0px;display:inline;fill:#ffffff;fill-opacity:1;stroke:none;stroke-width:1px;stroke-linecap:butt;stroke-linejoin:miter;stroke-opacity:1"
         x="834.04559"
         y="2802.4573"
         id="text5346"><tspan
           sodipodi:role="line"
           id="tspan5348"
           x="834.04559"
           y="2802.4573"
           style="font-style:normal;font-variant:normal;font-weight:normal;font-stretch:normal;font-size:175px;font-family:Vegur;-inkscape-font-specification:Vegur;fill:#ffffff">Free Office Suite</tspan></text>
      <path
         style="display:inline;fill:none;fill-rule:evenodd;stroke:#ffffff;stroke-width:54.43183517;stroke-linecap:round;stroke-linejoin:round;stroke-miterlimit:4;stroke-dasharray:none;stroke-opacity:1"
         d="m 1339.0697,3532.5462 150.6499,93.1002 -75.9021,-46.5152 -75.6139,44.9568 151.3549,-91.6995 -75.6324,46.6802 v -85.2918 168.1451 -82.8257"
         id="path5352"
         inkscape:path-effect="#path-effect5354"
         inkscape:original-d="m 1339.0697,3532.5462 150.6499,93.1002 -75.9021,-46.5152 -75.6139,44.9568 151.3549,-91.6995 -75.6324,46.6802 v -85.2918 168.1451 -82.8257"
         inkscape:connector-curvature="0"
         sodipodi:nodetypes="ccccccccc" />
      <text
         xml:space="preserve"
         style="font-style:normal;font-weight:normal;font-size:12.5px;line-height:125%;font-family:sans-serif;letter-spacing:0px;word-spacing:0px;display:inline;fill:#000000;fill-opacity:1;stroke:none;stroke-width:1px;stroke-linecap:butt;stroke-linejoin:miter;stroke-opacity:1"
         x="1017.1448"
         y="3961.8647"
         id="text5358"><tspan
           sodipodi:role="line"
           id="tspan5360"
           x="1017.1448"
           y="3961.8647"
           style="font-style:normal;font-variant:normal;font-weight:normal;font-stretch:normal;font-size:175px;font-family:vegur;-inkscape-font-specification:vegur;fill:#ffffff">Fun Project</tspan></text>
      <rect
         style="display:inline;opacity:1;fill:#ffffff;fill-opacity:1;stroke:#ffffff;stroke-width:10.04923439;stroke-linecap:round;stroke-linejoin:round;stroke-miterlimit:4;stroke-dasharray:none;stroke-dashoffset:0;stroke-opacity:1"
         id="rect5381"
         width="49.887268"
         height="94.749931"
         x="1310.6006"
         y="4774.2183" />
      <path
         style="display:inline;fill:#ffffff;fill-opacity:1;fill-rule:evenodd;stroke:#ffffff;stroke-width:3.10210395;stroke-linecap:butt;stroke-linejoin:round;stroke-miterlimit:4;stroke-dasharray:none;stroke-opacity:1"
         d="m 1374.8515,4869.866 -0.5484,-97.3375 c 0.1662,-0.1538 0.3394,-0.3 0.5188,-0.4381 0.3901,-0.3002 0.8086,-0.5611 1.2134,-0.8411 0.5686,-0.3934 1.1134,-0.8267 1.7254,-1.1485 0.3292,-0.1731 0.6753,-0.3125 1.026,-0.4365 0.5136,-0.1816 1.0383,-0.3306 1.5663,-0.4648 0.4237,-0.1077 0.8499,-0.2058 1.278,-0.2944 l 0.8498,-0.2547 1.0044,-0.3938 0.4794,-0.3003 1.0648,-0.9657 36.8074,-43.4073 c 0.4402,-0.7848 0.889,-1.5648 1.3465,-2.3397 0.4354,-0.7376 0.8786,-1.4706 1.3295,-2.1988 l 6.0881,-20.7353 -0.1725,0.8924 0.3527,-1.4538 4.9393,-12.137 1.0943,-1.9992 0.5087,-0.79 0.8943,-0.7548 1.123,-0.8132 c 0.2792,-0.1598 0.5568,-0.3223 0.8328,-0.4877 0.3113,-0.1866 0.6206,-0.3766 0.9276,-0.5702 0.3064,-0.168 0.6175,-0.3275 0.9327,-0.4783 0.2248,-0.1076 0.4517,-0.2107 0.6806,-0.3093 0.1901,-0.068 0.3801,-0.1364 0.5702,-0.2046 0.1765,-0.063 0.353,-0.1267 0.5312,-0.1851 0.1697,-0.056 0.3409,-0.1067 0.5133,-0.1532 l 0.9261,-0.2085 1.1654,-0.032 c 0.2098,0.025 0.4192,0.053 0.6283,0.084 0.3137,0.046 0.6265,0.098 0.9382,0.1551 0.489,0.1105 0.9758,0.2311 1.4599,0.3616 0.3221,0.087 0.6432,0.1781 0.9586,0.2868 0.2708,0.093 0.537,0.1993 0.806,0.2978 0.2999,0.1098 0.6032,0.2103 0.9055,0.3133 0.2825,0.096 0.5642,0.1949 0.8462,0.2928 0.2481,0.086 0.4964,0.1718 0.7446,0.2576 0.2764,0.096 0.5527,0.1912 0.829,0.2868 0.3198,0.1107 0.6396,0.2214 0.9594,0.332 0.9408,0.5293 1.8747,1.0707 2.8015,1.624 0.647,0.3863 1.2906,0.7784 1.9306,1.1763 0.2188,0.19 0.4365,0.3813 0.6531,0.5737 0.2195,0.195 0.4379,0.3912 0.6514,0.5928 0.1751,0.1654 0.3469,0.3343 0.5151,0.5067 0.09,0.1256 0.1764,0.2536 0.2594,0.3839 0.1344,0.2111 0.2596,0.4279 0.3877,0.6428 0.4231,0.7097 0.8793,1.3991 1.3315,2.0906 0.4538,0.6939 0.9039,1.3904 1.3339,2.0993 0.6964,1.1481 1.3395,2.3276 2.0137,3.4888 0.5029,0.8662 1.0233,1.7224 1.5606,2.5677 l 1.0933,2.2656 0.9466,2.1723 0.4916,1.7523 0.2333,2.1864 c 0.01,0.5132 0.01,1.0267 -0.01,1.5398 -0.014,0.4401 -0.038,0.8799 -0.072,1.319 l -0.2924,2.0482 c -0.07,0.4239 -0.1397,0.8479 -0.2081,1.2721 -0.086,0.5359 -0.1714,1.072 -0.2548,1.6083 l -0.5284,1.6413 -1.5132,3.1038 c -1.7551,3.5999 -3.5428,7.1849 -5.4572,10.7026 l -4.4822,10.4719 -2.7603,6.9076 -1.2399,2.5909 -1.0534,1.8463 0.452,-0.1007 0.6879,0.6204 0.2017,0.1207 0.1724,0.2656 3.3118,0.099 -0.9278,-0.02 c 0.7763,-0.041 1.5527,-0.079 2.3293,-0.1141 11.5286,-0.5253 23.0747,-0.4662 34.6153,-0.4709 4.3064,-0 8.6129,-0.012 12.9193,-0.032 l 1.256,0.238 1.1076,0.5492 8.8639,6.6873 0.8519,0.8979 0.5826,0.7167 5.782,9.2144 0.4306,1.1892 0.3066,1.2987 0.5282,14.0628 -1.7677,6.1003 -1.1113,1.2342 c -0.2603,0.3587 -0.5188,0.7186 -0.7755,1.0799 -0.576,0.8106 -1.1429,1.6277 -1.7005,2.4511 l 0.8358,-1.4033 -1.2332,2.0901 -0.2701,0.7302 -0.1208,0.4311 c 6e-4,0.1748 0.014,0.3495 0.039,0.5225 0.034,0.2297 0.089,0.4562 0.1649,0.6755 0.1168,0.2223 0.2317,0.4456 0.3448,0.6698 0.1415,0.2806 0.2802,0.5628 0.4335,0.8371 0.07,0.1259 0.1437,0.2501 0.2201,0.3724 l 0.075,0.42 c -0,0.2682 -0.01,0.5365 -0.01,0.8048 -0.014,1.7659 0.024,3.5319 0.011,5.2978 -0.016,2.0971 -0.1039,4.193 -0.2123,6.2873 -0.017,0.3256 -0.034,0.6512 -0.052,0.9768 l -0.1441,0.8519 -1.485,5.0095 c -0.1245,0.2515 -0.2498,0.5027 -0.3758,0.7535 -0.12,0.2388 -0.2406,0.4773 -0.3619,0.7154 l -1.9013,2.7382 c -0.2059,0.3929 -0.4095,0.7869 -0.6109,1.1821 -0.1887,0.3703 -0.3755,0.7417 -0.5603,1.114 l -0.2055,1.1688 0.076,0.9907 0.4785,1.7289 0.3224,0.9076 0.1824,0.8418 -0.053,5.1476 c -0.031,0.2471 -0.067,0.4935 -0.109,0.7389 -0.035,0.2045 -0.074,0.4083 -0.1164,0.6113 l -1.7794,4.0937 c -0.5379,1.0111 -1.0863,2.0166 -1.6453,3.0162 -1.503,2.6879 -3.0817,5.3334 -4.7338,7.9323 l -1.4321,1.6971 -0.7662,1.6246 0.059,1.8807 0.4363,1.9246 c 0.4755,1.9565 0.8512,3.9373 1.1251,5.932 0.051,0.3753 0.099,0.751 0.1438,1.1272 l -0.2314,1.2009 -0.5661,1.4439 c -0.2469,0.4938 -0.4975,0.9858 -0.7517,1.4759 -1.1705,2.2566 -2.418,4.4733 -3.7396,6.6449 l -0.7854,1.1155 -0.8632,0.78 c -4.1845,2.6043 -8.4556,5.0695 -12.8038,7.3901 -0.3792,0.2024 -0.759,0.4036 -1.1393,0.6038 l -1.0311,0.3111 c -5.1676,0.4238 -10.3376,0.8177 -15.5098,1.1817 -1.3075,0.092 -2.6158,0.1822 -3.9264,0.2009 -0.4492,0.01 -0.8985,0 -1.3478,3e-4 -7.1414,-0.066 -14.2671,-0.6785 -21.4065,-0.8604 -0.7483,-0.019 -1.4968,-0.033 -2.2453,-0.043 l -1.8564,-0.4008 -29.7242,-7.7928 c -8.3572,-2.191 -16.7073,-4.41 -25.0268,-6.7401 -2.5494,-0.9099 -5.108,-1.7939 -7.6753,-2.652 -0.3497,-0.1169 -0.6996,-0.2333 -1.0496,-0.3492 -0.3012,-0.2463 -0.6071,-0.487 -0.9173,-0.7219 -0.2887,-0.2186 -0.5813,-0.4322 -0.8774,-0.6407 z"
         id="path5398"
         inkscape:path-effect="#path-effect5400"
         inkscape:original-d="m 1374.8515,4869.866 -0.5484,-97.3375 c 0.1536,-0.1788 0.2513,-0.8194 0.5188,-0.4381 0.1957,0.2792 0.4337,-0.5148 1.2134,-0.8411 0.7355,-0.3579 0.976,-0.2974 1.7254,-1.1485 0.1681,-0.191 0.735,-0.2711 1.026,-0.4365 0.6365,-0.4069 1.1677,-0.4593 1.5663,-0.4648 1.1765,-0.017 0.7578,-0.1997 1.278,-0.2944 l 0.8498,-0.2547 1.0044,-0.3938 0.4794,-0.3003 1.0648,-0.9657 36.8074,-43.4073 1.3465,-2.3397 1.3295,-2.1988 6.0881,-20.7353 c 0.061,-0.3137 -0.063,0.3654 -0.1725,0.8924 l 0.3527,-1.4538 4.9393,-12.137 1.0943,-1.9992 0.5087,-0.79 0.8943,-0.7548 1.123,-0.8132 0.8328,-0.4877 0.9276,-0.5702 0.9327,-0.4783 0.6806,-0.3093 0.5702,-0.2046 0.5312,-0.1851 0.5133,-0.1532 0.9261,-0.2085 1.1654,-0.032 c 0.188,0.1198 0.4551,0.038 0.6283,0.084 0.2695,0.071 0.6804,0.1426 0.9382,0.1551 l 1.4599,0.3616 0.9586,0.2868 0.806,0.2978 0.9055,0.3133 0.8462,0.2928 0.7446,0.2576 0.829,0.2868 0.9594,0.332 2.8015,1.624 1.9306,1.1763 0.6531,0.5737 0.6514,0.5928 0.5151,0.5067 0.2594,0.3839 0.3877,0.6428 1.3315,2.0906 1.3339,2.0993 2.0137,3.4888 1.5606,2.5677 c 0,0 -0.6252,3.2291 1.0933,2.2656 l 0.9466,2.1723 0.4916,1.7523 0.2333,2.1864 -0.01,1.5398 -0.072,1.319 c 0.4476,0.204 -4.5453,4.1274 -0.2924,2.0482 l -0.2081,1.2721 -0.2548,1.6083 -0.5284,1.6413 -1.5132,3.1038 c -1.8387,4.3744 -8.9944,6.3283 -5.4572,10.7026 8.2612,7.1141 -2.822,7.0783 -4.4822,10.4719 l -2.7603,6.9076 -1.2399,2.5909 -1.0534,1.8463 0.452,-0.1007 0.6879,0.6204 0.2017,0.1207 0.1724,0.2656 c 0.3481,0.1087 2.8873,0.7549 3.3118,0.099 l -0.9278,-0.02 2.3293,-0.1141 34.6153,-0.4709 12.9193,-0.032 1.256,0.238 1.1076,0.5492 8.8639,6.6873 0.8519,0.8979 0.5826,0.7167 5.782,9.2144 0.4306,1.1892 0.3066,1.2987 c 3.5384,7.4357 0.294,9.2705 0.5282,14.0628 l -1.7677,6.1003 -1.1113,1.2342 -0.7755,1.0799 -1.7005,2.4511 0.8358,-1.4033 c -0.2733,0.6959 -1.4218,2.7378 -1.2332,2.0901 l -0.2701,0.7302 -0.1208,0.4311 c 0,0 -0.094,0.2597 0.039,0.5225 0.1095,0.2165 0.3723,0.9145 0.1649,0.6755 l 0.3448,0.6698 0.4335,0.8371 0.2201,0.3724 0.075,0.42 -0.01,0.8048 0.011,5.2978 -0.2123,6.2873 -0.052,0.9768 -0.1441,0.8519 -1.485,5.0095 -0.3758,0.7535 -0.3619,0.7154 -1.9013,2.7382 c 0,0 -0.3488,0.6029 -0.6109,1.1821 -0.3208,0.7091 -0.5298,1.5716 -0.5603,1.114 l -0.2055,1.1688 0.076,0.9907 0.4785,1.7289 c -0.018,0.2713 0.9517,0.9856 0.3224,0.9076 l 0.1824,0.8418 -0.053,5.1476 -0.109,0.7389 -0.1164,0.6113 -1.7794,4.0937 -1.6453,3.0162 -4.7338,7.9323 -1.4321,1.6971 -0.7662,1.6246 c 5.4856,-0.2551 0.092,1.3476 0.059,1.8807 0.107,1.0778 0.4363,1.9246 0.4363,1.9246 l 1.1251,5.932 0.1438,1.1272 -0.2314,1.2009 c 0.9094,0.6003 -0.4326,0.9479 -0.5661,1.4439 l -0.7517,1.4759 -3.7396,6.6449 -0.7854,1.1155 -0.8632,0.78 -12.8038,7.3901 -1.1393,0.6038 -1.0311,0.3111 -15.5098,1.1817 -3.9264,0.2009 -1.3478,3e-4 -21.4065,-0.8604 -2.2453,-0.043 c -0.5301,-0.1332 -1.9558,0.1822 -1.8564,-0.4008 l -29.7242,-7.7928 c -8.2533,-2.2185 -24.6604,-9.9276 -25.0268,-6.7401 l -7.6753,-2.652 -1.0496,-0.3492 -0.9173,-0.7219 -0.8774,-0.6407 z"
         inkscape:connector-curvature="0"
         sodipodi:nodetypes="ccscscscccccccccccccccccccccccccsccccccccccccccccccccccccccccccccccccccccccccccccccccccccccccccsccccccccccccccscccccccccccccccccccccccccccccccccccccccc" />
      <text
         xml:space="preserve"
         style="font-style:normal;font-weight:normal;font-size:12.5px;line-height:125%;font-family:sans-serif;letter-spacing:0px;word-spacing:0px;display:inline;fill:#000000;fill-opacity:1;stroke:none;stroke-width:1px;stroke-linecap:butt;stroke-linejoin:miter;stroke-opacity:1"
         x="843.7868"
         y="5189.1143"
         id="text5402"><tspan
           sodipodi:role="line"
           id="tspan5404"
           x="843.7868"
           y="5189.1143"
           style="font-style:normal;font-variant:normal;font-weight:normal;font-stretch:normal;font-size:175px;font-family:vegur;-inkscape-font-specification:vegur;fill:#ffffff">Fantastic People</tspan></text>
      <circle
         style="opacity:1;fill:#51b749;fill-opacity:1;stroke:none;stroke-width:2;stroke-linecap:round;stroke-linejoin:round;stroke-miterlimit:4;stroke-dasharray:none;stroke-dashoffset:0;stroke-opacity:1"
         id="path5388"
         cx="1335.7942"
         cy="4848.1533"
         r="12.201447" />
      <circle
         style="opacity:1;fill:none;fill-opacity:1;stroke:#ffffff;stroke-width:14.66217518;stroke-linecap:round;stroke-linejoin:miter;stroke-miterlimit:4;stroke-dasharray:none;stroke-dashoffset:0;stroke-opacity:1"
         id="path5240"
         r="179.81522"
         cy="2417.0894"
         cx="1413.9415" />
      <circle
         style="opacity:1;fill:none;fill-opacity:1;stroke:#ffffff;stroke-width:14.7038517;stroke-linecap:round;stroke-linejoin:miter;stroke-miterlimit:4;stroke-dasharray:none;stroke-dashoffset:0;stroke-opacity:1"
         id="path5240-5"
         r="180.32632"
         cy="3579.4966"
         cx="1413.9415" />
      <circle
         style="opacity:1;fill:none;fill-opacity:1;stroke:#ffffff;stroke-width:14.66467953;stroke-linecap:round;stroke-linejoin:miter;stroke-miterlimit:4;stroke-dasharray:none;stroke-dashoffset:0;stroke-opacity:1"
         id="path5240-5-3"
         cy="4799.686"
         cx="1413.9415"
         r="179.84593" />
    </g>
    <g
       id="g2253"
       transform="translate(257.89301)">
      <g
         id="g2686"
         transform="translate(-46.875001)">
        <g
           style="fill:#000000"
           transform="matrix(1.729089,0,0,1.729089,-1535.4306,-4856.2565)"
           id="g2314">
          <g
             id="g2332"
             transform="translate(3.6526689,-69.400709)">
            <g
               id="g2350"
               transform="matrix(0.88957365,0,0,0.88957365,166.34368,741.56021)">
              <g
                 id="g2387"
                 transform="translate(224.00394)">
                <text
                   id="text2252"
                   y="6501.8062"
                   x="1106.7087"
                   style="font-style:normal;font-variant:normal;font-weight:800;font-stretch:normal;font-size:114.39337158px;line-height:1.25;font-family:'exo 2';-inkscape-font-specification:'exo 2 Ultra-Bold';text-align:start;text-anchor:start;display:inline;opacity:1;fill:#ffffff;fill-opacity:1;fill-rule:nonzero;stroke:none;stroke-width:39.63234711;stroke-linecap:square;stroke-linejoin:round;stroke-miterlimit:4;stroke-dasharray:none;stroke-opacity:1;paint-order:markers fill stroke"
                   xml:space="preserve"><tspan
                     style="font-style:normal;font-variant:normal;font-weight:normal;font-stretch:normal;font-family:vegur;-inkscape-font-specification:vegur;fill:#ffffff;stroke-width:39.63234711"
                     y="6501.8062"
                     x="1106.7087"
                     id="tspan2250"
                     sodipodi:role="line">Supported by</tspan></text>
                <g
                   transform="matrix(4.926269,0,0,4.926269,4890.9599,4924.8481)"
                   id="g2280"
                   style="fill:#ffffff">
                  <g
                     inkscape:label="Background Stripe"
                     id="g2254"
                     transform="translate(0,2.4814729e-5)"
                     style="fill:#ffffff" />
                  <g
                     id="g2278"
                     inkscape:label="Text "
                     style="fill:#ffffff">
                    <g
                       id="g2276"
                       transform="translate(0,6.35)"
                       style="fill:#ffffff">
                      <g
                         transform="matrix(5.5032231,0,0,5.5032231,3240.2661,-1414.2613)"
                         id="g2274"
                         style="fill:#ffffff">
                        <path
                           inkscape:connector-curvature="0"
                           id="path2256"
                           style="fill:#ffffff;fill-opacity:1;fill-rule:nonzero;stroke:none;stroke-width:0.16518977"
                           d="m -722.25123,320.3991 c 0,-0.1042 -0.021,-0.2088 -0.064,-0.3132 -0.043,-0.1044 -0.1021,-0.1959 -0.1781,-0.2741 -0.076,-0.078 -0.1662,-0.1425 -0.2706,-0.1924 -0.1042,-0.05 -0.2182,-0.075 -0.3416,-0.075 -0.1234,0 -0.2373,0.025 -0.3417,0.075 -0.1044,0.05 -0.1948,0.114 -0.2706,0.1924 -0.076,0.078 -0.1353,0.1697 -0.1779,0.2741 -0.043,0.1044 -0.064,0.209 -0.064,0.3132 v 0.2927 c 0,0.1092 0.021,0.2149 0.064,0.3168 0.043,0.1021 0.1019,0.1922 0.1779,0.2706 0.076,0.078 0.1662,0.1424 0.2706,0.1921 0.1044,0.05 0.2183,0.075 0.3417,0.075 0.1234,0 0.2374,-0.025 0.3416,-0.075 0.1044,-0.05 0.1946,-0.1139 0.2706,-0.1921 0.076,-0.078 0.1353,-0.1685 0.1781,-0.2706 0.043,-0.1019 0.064,-0.2076 0.064,-0.3168 z m -0.8544,-1.6375 c 0.2325,0 0.4522,0.045 0.6585,0.1353 0.2065,0.09 0.388,0.2135 0.5446,0.3703 0.1568,0.1566 0.2802,0.3382 0.3704,0.5446 0.09,0.2064 0.1353,0.4261 0.1353,0.6585 v 0.1503 c 0,-0.2123 -0.045,0.4521 -0.1353,0.6586 -0.09,0.2065 -0.2136,0.3881 -0.3704,0.5447 -0.1566,0.1566 -0.3381,0.28 -0.5446,0.3701 -0.2063,0.09 -0.426,0.1353 -0.6585,0.1353 -0.2326,0 -0.4521,-0.045 -0.6586,-0.1353 -0.2065,-0.09 -0.388,-0.2135 -0.5446,-0.3701 -0.1566,-0.1566 -0.2802,-0.3382 -0.3702,-0.5447 -0.09,-0.2065 -0.1353,-0.426 -0.1353,-0.6586 v -0.1503 c 0,-0.2324 0.045,-0.4521 0.1353,-0.6585 0.09,-0.2064 0.2136,-0.388 0.3702,-0.5446 0.1566,-0.1568 0.3381,-0.2801 0.5446,-0.3703 0.2065,-0.09 0.426,-0.1353 0.6586,-0.1353" />
                        <path
                           inkscape:connector-curvature="0"
                           id="path2258"
                           style="fill:#ffffff;fill-opacity:1;fill-rule:nonzero;stroke:none;stroke-width:0.16518977"
                           d="m -716.80883,319.6951 c -0.1092,0 -0.1958,0.032 -0.2598,0.096 -0.064,0.064 -0.096,0.1508 -0.096,0.26 v 0.2136 h 1.1392 v -0.2136 c 0,-0.1092 -0.032,-0.1959 -0.096,-0.26 -0.064,-0.064 -0.1506,-0.096 -0.2598,-0.096 z m -0.071,2.6341 c -0.1614,0 -0.3109,-0.029 -0.4485,-0.089 -0.1378,-0.059 -0.2575,-0.1398 -0.3596,-0.242 -0.1021,-0.1019 -0.1827,-0.2217 -0.242,-0.3596 -0.06,-0.1375 -0.089,-0.287 -0.089,-0.4485 v -1.139 c 0,-0.1612 0.029,-0.3111 0.089,-0.4487 0.059,-0.1376 0.1399,-0.2575 0.242,-0.3594 0.1021,-0.1019 0.2218,-0.1827 0.3596,-0.2422 0.1376,-0.059 0.2871,-0.089 0.4485,-0.089 h 0.5696 c 0.1614,0 0.3109,0.029 0.4485,0.089 0.1376,0.059 0.2575,0.1403 0.3596,0.2422 0.1021,0.1019 0.1827,0.2218 0.242,0.3594 0.059,0.1376 0.089,0.2875 0.089,0.4487 v 0.9254 h -1.9935 v 0.2136 c 0,0.1093 0.032,0.1959 0.096,0.26 0.064,0.064 0.1506,0.096 0.2598,0.096 h 0.5696 c 0.09,0 0.1673,-0.012 0.2314,-0.036 0.064,-0.024 0.1175,-0.051 0.1601,-0.082 0.043,-0.031 0.078,-0.062 0.1068,-0.092 0.028,-0.031 0.052,-0.056 0.071,-0.075 h 0.1424 l 0.356,0.356 v 0.1423 l -0.2848,0.2849 c -0.071,0.071 -0.184,0.1363 -0.3381,0.1956 -0.1543,0.06 -0.3026,0.089 -0.445,0.089 z" />
                        <path
                           inkscape:connector-curvature="0"
                           id="path2260"
                           style="fill:#ffffff;fill-opacity:1;fill-rule:nonzero;stroke:none;stroke-width:0.16518977"
                           d="m -713.01953,318.912 c 0.1614,0 0.3109,0.029 0.4485,0.089 0.1376,0.059 0.2575,0.1403 0.3596,0.2422 0.1021,0.1019 0.1827,0.2219 0.242,0.3595 0.059,0.1376 0.089,0.2872 0.089,0.4486 v 2.2071 l -0.071,0.071 h -0.7119 l -0.071,-0.071 v -2.2071 c 0,-0.1092 -0.033,-0.1959 -0.1,-0.26 -0.067,-0.064 -0.1545,-0.096 -0.2635,-0.096 h -0.2777 c -0.1424,0 -0.2729,0.05 -0.3915,0.1495 -0.1188,0.1 -0.1781,0.2397 -0.1781,0.4201 v 1.9935 l -0.071,0.071 h -0.7119 l -0.071,-0.071 v -3.2752 l 0.071,-0.071 h 0.1424 l 0.2918,0.3061 c 0.114,-0.095 0.2386,-0.1698 0.3739,-0.2244 0.1353,-0.054 0.293,-0.082 0.4734,-0.082 z" />
                        <path
                           inkscape:connector-curvature="0"
                           id="path2262"
                           style="fill:#ffffff;fill-opacity:1;fill-rule:nonzero;stroke:none;stroke-width:0.16518977"
                           d="m -706.75713,320.9766 c -0.033,0 -0.07,0 -0.1103,0.014 -0.041,0.01 -0.078,0.025 -0.1139,0.046 -0.036,0.021 -0.065,0.051 -0.089,0.089 -0.024,0.038 -0.036,0.083 -0.036,0.1354 0,0.052 0.012,0.097 0.036,0.1352 0.024,0.038 0.053,0.067 0.089,0.089 0.036,0.021 0.073,0.037 0.1139,0.046 0.04,0.01 0.077,0.014 0.1103,0.014 h 0.3631 c 0.1044,0 0.1898,-0.022 0.2564,-0.068 0.066,-0.045 0.1174,-0.1 0.1531,-0.1639 0.035,-0.064 0.059,-0.1268 0.071,-0.1886 0.012,-0.062 0.018,-0.1115 0.018,-0.1495 z m 0.5767,-2.0646 c 0.1614,0 0.3109,0.03 0.4485,0.089 0.1377,0.06 0.2575,0.1403 0.3596,0.2424 0.1021,0.1019 0.1827,0.2218 0.242,0.3593 0.059,0.1377 0.089,0.2874 0.089,0.4486 v 2.2073 l -0.071,0.071 h -0.1424 l -0.2847,-0.2848 c -0.1234,0.095 -0.2516,0.1662 -0.3844,0.2138 -0.133,0.047 -0.2896,0.071 -0.47,0.071 h -0.4272 c -0.1424,0 -0.2777,-0.026 -0.4059,-0.078 -0.128,-0.052 -0.242,-0.1245 -0.3416,-0.2172 -0.1,-0.092 -0.178,-0.204 -0.235,-0.3345 -0.057,-0.1305 -0.085,-0.2765 -0.085,-0.4378 0,-0.1615 0.028,-0.3039 0.085,-0.4273 0.057,-0.1234 0.1353,-0.2278 0.235,-0.3132 0.1,-0.086 0.2136,-0.1495 0.3416,-0.1925 0.1282,-0.043 0.2635,-0.064 0.4059,-0.064 h 0.9256 v -0.2136 c 0,-0.109 -0.032,-0.1957 -0.096,-0.2598 -0.064,-0.064 -0.1506,-0.096 -0.2598,-0.096 h -0.4272 c -0.09,0 -0.1672,0.012 -0.2314,0.035 -0.064,0.024 -0.1175,0.051 -0.1601,0.082 -0.043,0.031 -0.078,0.062 -0.1069,0.093 -0.028,0.031 -0.052,0.056 -0.071,0.075 h -0.1424 l -0.3559,-0.356 v -0.1422 l 0.2847,-0.2849 c 0.071,-0.071 0.1839,-0.1363 0.3382,-0.196 0.1543,-0.059 0.3026,-0.089 0.445,-0.089 z" />
                        <path
                           inkscape:connector-curvature="0"
                           id="path2264"
                           style="fill:#ffffff;fill-opacity:1;fill-rule:nonzero;stroke:none;stroke-width:0.16518977"
                           d="m -699.97063,318.912 c 0.1424,0 0.2908,0.029 0.4451,0.089 0.1541,0.059 0.2669,0.1246 0.3381,0.1958 l 0.2848,0.285 v 0.1423 l -0.4272,0.3559 h -0.1424 c -0.019,-0.019 -0.042,-0.044 -0.067,-0.075 -0.026,-0.031 -0.06,-0.062 -0.1,-0.092 -0.04,-0.031 -0.088,-0.058 -0.1425,-0.082 -0.055,-0.024 -0.1175,-0.036 -0.1887,-0.036 h -0.4983 c -0.071,0 -0.1246,0.026 -0.1603,0.078 -0.035,0.052 -0.053,0.097 -0.053,0.1353 0,0.095 0.044,0.1627 0.1316,0.203 0.088,0.04 0.1983,0.075 0.3312,0.1032 0.1328,0.028 0.2752,0.057 0.4271,0.085 0.1519,0.028 0.2943,0.081 0.4273,0.1566 0.1328,0.076 0.2432,0.1816 0.331,0.3169 0.088,0.1353 0.1317,0.3216 0.1317,0.5588 0,0.285 -0.089,0.5222 -0.267,0.7121 -0.178,0.1898 -0.445,0.2847 -0.801,0.2847 h -0.5695 c -0.1424,0 -0.2908,-0.03 -0.4451,-0.089 -0.1542,-0.059 -0.2669,-0.1245 -0.3381,-0.1956 l -0.2848,-0.2849 v -0.1422 l 0.4272,-0.356 h 0.1424 c 0.019,0.019 0.042,0.044 0.068,0.075 0.026,0.031 0.059,0.062 0.1,0.092 0.04,0.031 0.088,0.058 0.1424,0.082 0.054,0.024 0.1175,0.036 0.1887,0.036 h 0.5695 c 0.071,0 0.1248,-0.026 0.1603,-0.078 0.036,-0.052 0.053,-0.097 0.053,-0.1355 0,-0.095 -0.044,-0.1624 -0.1316,-0.2029 -0.088,-0.04 -0.1983,-0.075 -0.3311,-0.1032 -0.1329,-0.028 -0.2753,-0.057 -0.4271,-0.085 -0.1522,-0.029 -0.2944,-0.081 -0.4274,-0.1566 -0.1328,-0.076 -0.2432,-0.1815 -0.331,-0.317 -0.088,-0.1351 -0.1317,-0.3213 -0.1317,-0.5588 0,-0.2847 0.088,-0.522 0.2635,-0.712 0.1756,-0.1898 0.4414,-0.2846 0.7974,-0.2846 z" />
                        <path
                           inkscape:connector-curvature="0"
                           id="path2266"
                           style="fill:#ffffff;fill-opacity:1;fill-rule:nonzero;stroke:none;stroke-width:0.16518977"
                           d="m -708.99553,322.2401 c -0.1379,-0.059 -0.2579,-0.14 -0.3601,-0.2423 -0.1023,-0.1022 -0.183,-0.2222 -0.2423,-0.3601 -0.06,-0.1378 -0.089,-0.2876 -0.089,-0.4492 v -2.2487 l 0.4278,-0.2139 h 0.3565 l 0.071,0.071 v 2.3912 c 0,0.1094 0.032,0.1961 0.096,0.2602 0.064,0.064 0.1508,0.096 0.2603,0.096 h 0.2851 l 0.071,0.071 v 0.6416 l -0.071,0.071 h -0.3564 c -0.1616,0 -0.3114,-0.03 -0.4492,-0.089" />
                        <path
                           inkscape:connector-curvature="0"
                           id="path2268"
                           style="fill:#ffffff;fill-opacity:1;fill-rule:nonzero;stroke:none;stroke-width:0.16518977"
                           d="m -719.15823,320.6898 c 0,0.1093 -0.032,0.1959 -0.096,0.26 -0.064,0.064 -0.1507,0.096 -0.2599,0.096 h -0.2135 c -0.1424,0 -0.2729,-0.05 -0.3915,-0.1495 -0.1188,-0.1 -0.1781,-0.2397 -0.1781,-0.4201 v -0.2114 c 0,-0.1806 0.059,-0.3205 0.1781,-0.4201 0.1186,-0.1 0.2491,-0.1495 0.3915,-0.1495 h 0.2064 c 0.1092,0 0.1969,0.032 0.2635,0.096 0.066,0.064 0.1,0.1508 0.1,0.2598 z m 0.7654,-1.0875 c -0.059,-0.1374 -0.1401,-0.2573 -0.242,-0.3592 -0.1021,-0.1021 -0.2221,-0.1829 -0.3597,-0.2424 -0.1376,-0.059 -0.2872,-0.089 -0.4485,-0.089 h -0.3559 c -0.1804,0 -0.3383,0.027 -0.4735,0.082 -0.1353,0.055 -0.2598,0.1295 -0.3738,0.2245 l -0.2919,-0.3061 h -0.1424 l -0.071,0.071 v 3.3107 l 0.071,0.071 h 0.712 l 0.071,-0.071 v -0.6785 c 0.038,0.038 0.1032,0.083 0.1957,0.1353 0.093,0.052 0.1935,0.078 0.3027,0.078 h 0.3559 c 0.1613,0 0.3109,-0.03 0.4485,-0.089 0.1376,-0.059 0.2576,-0.1399 0.3597,-0.242 0.1019,-0.1021 0.1827,-0.2217 0.242,-0.3596 0.059,-0.1376 0.089,-0.2871 0.089,-0.4485 v -0.6388 c 0,-0.1612 -0.03,-0.3109 -0.089,-0.4487" />
                        <path
                           inkscape:connector-curvature="0"
                           id="path2270"
                           style="fill:#ffffff;fill-opacity:1;fill-rule:nonzero;stroke:none;stroke-width:0.16518977"
                           d="m -702.60483,321.1902 c 0,0.1093 -0.033,0.1959 -0.1,0.26 -0.067,0.064 -0.1543,0.096 -0.2635,0.096 h -0.2065 c -0.1424,0 -0.2729,-0.05 -0.3915,-0.1495 -0.1187,-0.1 -0.1781,-0.2397 -0.1781,-0.4201 v -0.1186 c 0,-0.1804 0.059,-0.3205 0.1781,-0.4201 0.1186,-0.1 0.2491,-0.1495 0.3915,-0.1495 h 0.2065 c 0.1092,0 0.1969,0.032 0.2635,0.096 0.066,0.064 0.1,0.1508 0.1,0.26 z m 0.7653,-0.9945 c -0.059,-0.1374 -0.1401,-0.2573 -0.242,-0.3594 -0.1021,-0.1019 -0.2218,-0.1827 -0.3596,-0.2422 -0.1376,-0.059 -0.2873,-0.089 -0.4485,-0.089 h -0.356 c -0.1092,0 -0.2099,0.026 -0.3026,0.078 -0.092,0.052 -0.1579,0.097 -0.1958,0.1352 v -0.9215 l -0.071,-0.071 h -0.712 l -0.071,0.071 v 3.4609 l 0.071,0.071 h 0.1424 l 0.2919,-0.3061 c 0.1139,0.095 0.2385,0.1697 0.3738,0.2242 0.1353,0.055 0.293,0.082 0.4734,0.082 h 0.356 c 0.1612,0 0.3109,-0.029 0.4485,-0.089 0.1378,-0.059 0.2575,-0.1399 0.3596,-0.242 0.1019,-0.1021 0.1827,-0.2217 0.242,-0.3596 0.059,-0.1376 0.089,-0.2871 0.089,-0.4485 v -0.5458 c 0,-0.1612 -0.03,-0.3109 -0.089,-0.4487" />
                        <path
                           inkscape:connector-curvature="0"
                           id="path2272"
                           style="fill:#ffffff;fill-opacity:1;fill-rule:nonzero;stroke:none;stroke-width:0.16518977"
                           d="m -727.08463,318.9169 -1.1309,1.716 0.5671,0.8606 h -1.5612 l 0.6644,0.9865 h -1.5504 l 0.6644,0.9867 h -1.5788 l 0.6644,-0.9867 h -1.5504 l 0.6644,-0.9865 h -1.5612 l 0.5673,-0.8606 -0.5673,-0.8607 h 1.5612 l -0.6644,-0.9865 h 1.5504 l -0.6644,-0.9865 h 1.5788 l -0.6644,0.9865 h 1.0313 l 1.2404,-1.8419 h -4.7934 l 0.6644,0.9866 h -1.5504 l 0.6644,0.9865 h -1.542 l 1.1309,1.716 -1.1307,1.716 h 1.5418 l -0.6644,0.9865 h 1.5504 l -0.6644,0.9866 h 4.7934 l -0.6644,-0.9866 h 1.5504 l -0.6644,-0.9865 h 1.542 l -1.1309,-1.716 1.1309,-1.716 z" />
                      </g>
                    </g>
                  </g>
                </g>
              </g>
            </g>
          </g>
        </g>
      </g>
    </g>
  </g>
  <g
     transform="translate(0,6034.252)"
     id="layer1"
     inkscape:groupmode="layer"
     inkscape:label="Layer 1" />
  <g
     inkscape:label="Layer 3"
     id="layer3"
     inkscape:groupmode="layer">
    <g
       id="g1562"
       transform="translate(86.12576)">
      <rect
         style="display:inline;opacity:1;fill:#ffffff;fill-opacity:1;stroke:none;stroke-width:0.1;stroke-miterlimit:4;stroke-dasharray:none;stroke-opacity:1"
         id="rect4391"
         width="198.40056"
         height="32.876637"
         x="317.0408"
         y="1265.6099" />
      <rect
         style="display:inline;opacity:1;fill:#ffffff;fill-opacity:1;stroke:none;stroke-width:0.1;stroke-miterlimit:4;stroke-dasharray:none;stroke-opacity:1"
         id="rect4393"
         width="216.04932"
         height="32.063095"
         x="317.03128"
         y="1330.4037" />
      <rect
         style="display:inline;opacity:1;fill:#ffffff;fill-opacity:1;stroke:none;stroke-width:0.1;stroke-miterlimit:4;stroke-dasharray:none;stroke-opacity:1"
         id="rect4395"
         width="239.28967"
         height="33.08234"
         x="317.03687"
         y="1396.2833" />
      <path
         style="display:inline;fill:none;fill-rule:evenodd;stroke:#ffffff;stroke-width:18.07583618;stroke-linecap:butt;stroke-linejoin:round;stroke-miterlimit:4;stroke-dasharray:none;stroke-opacity:1"
         d="M 828.83907,1262.0286 H 1043.1668 V 1432.458 H 828.83907 Z"
         id="path4677"
         inkscape:connector-curvature="0" />
      <path
         style="display:inline;fill:#ffffff;fill-opacity:1;fill-rule:evenodd;stroke:none;stroke-width:1px;stroke-linecap:butt;stroke-linejoin:miter;stroke-opacity:1"
         d="m 927.92337,1271.0611 h 16.36434 l -0.0255,152.3721 -16.33413,0.011 z"
         id="path4689"
         inkscape:connector-curvature="0"
         sodipodi:nodetypes="ccccc" />
      <path
         style="display:inline;fill:none;fill-rule:evenodd;stroke:#ffffff;stroke-width:18.07583618;stroke-linecap:butt;stroke-linejoin:round;stroke-miterlimit:4;stroke-dasharray:none;stroke-opacity:1"
         d="m 1320.6193,1261.964 h 214.7299 v 170.4291 h -214.7299 z"
         id="path4882"
         inkscape:connector-curvature="0" />
      <circle
         style="display:inline;opacity:1;fill:#ffffff;fill-opacity:1;stroke:#ffffff;stroke-width:14.48064327;stroke-linecap:butt;stroke-linejoin:round;stroke-miterlimit:4;stroke-dasharray:none;stroke-opacity:1"
         id="path4884"
         cx="1351.3491"
         cy="1306.2821"
         r="3.6804969" />
      <circle
         style="display:inline;opacity:1;fill:#ffffff;fill-opacity:1;stroke:#ffffff;stroke-width:14.48064327;stroke-linecap:butt;stroke-linejoin:round;stroke-miterlimit:4;stroke-dasharray:none;stroke-opacity:1"
         id="path4884-2"
         cx="1351.2952"
         cy="1349.3978"
         r="3.6804969" />
      <circle
         style="display:inline;opacity:1;fill:#ffffff;fill-opacity:1;stroke:#ffffff;stroke-width:14.48064327;stroke-linecap:butt;stroke-linejoin:round;stroke-miterlimit:4;stroke-dasharray:none;stroke-opacity:1"
         id="path4884-2-5"
         cx="1351.4246"
         cy="1393.6465"
         r="3.6804969" />
      <rect
         style="display:inline;opacity:1;fill:#ffffff;fill-opacity:1;stroke:none;stroke-width:1;stroke-linecap:butt;stroke-linejoin:miter;stroke-miterlimit:4;stroke-dasharray:none;stroke-opacity:1"
         id="rect4922"
         width="103.3175"
         height="13.314118"
         x="1372.8374"
         y="1299.5415" />
      <rect
         style="display:inline;opacity:1;fill:#ffffff;fill-opacity:1;stroke:none;stroke-width:1;stroke-linecap:butt;stroke-linejoin:miter;stroke-miterlimit:4;stroke-dasharray:none;stroke-opacity:1"
         id="rect4924"
         width="128.6162"
         height="13.280698"
         x="1372.8242"
         y="1343.056" />
      <rect
         style="display:inline;opacity:1;fill:#ffffff;fill-opacity:1;stroke:none;stroke-width:1;stroke-linecap:butt;stroke-linejoin:miter;stroke-miterlimit:4;stroke-dasharray:none;stroke-opacity:1"
         id="rect4924-4"
         width="110.72205"
         height="13.280698"
         x="1372.7932"
         y="1387.1741" />
      <path
         style="display:inline;fill:none;fill-rule:evenodd;stroke:#ffffff;stroke-width:13.18094921;stroke-linecap:round;stroke-linejoin:miter;stroke-miterlimit:4;stroke-dasharray:none;stroke-dashoffset:0;stroke-opacity:1"
         d="m 1822.8561,1295.8163 c 0,0 12.3226,-20.8917 33.961,-28.8948 18.0035,-6.9274 45.1422,-5.5257 57.0314,-1.691 30.7795,9.4717 19.7037,33.3879 9.6949,43.9189 -17.5154,20.363 -33.5428,31.2828 -61.2791,47.0185 -10.2477,5.6607 -27.0482,15.318 -28.7131,28.3342 -1.0741,11.0959 0.847,20.229 13.0405,29.5769 12.4455,9.2244 32.0094,14.3744 52.5875,16.9503 24.5158,3.4562 47.6707,1.0932 64.3744,-3.0005 37.2567,-11.3172 47.0098,-21.8936 58.1205,-30.8071"
         id="path4975"
         inkscape:connector-curvature="0"
         sodipodi:nodetypes="cccccccccc" />
      <path
         style="display:inline;fill:none;fill-rule:evenodd;stroke:#ffffff;stroke-width:11.65479565;stroke-linecap:butt;stroke-linejoin:round;stroke-miterlimit:4;stroke-dasharray:none;stroke-opacity:1"
         d="m 2294.3219,1307.4514 0.017,98.5323 c 9.175,4.3709 18.5509,8.32 28.0883,11.8305 54.4593,20.0455 116.4169,25.1219 170.0546,2.9715 13.1588,-5.4341 25.6715,-12.4311 37.191,-20.7968 l -0.02,-84.7448 c -2.8783,3.3013 -6.1601,6.2506 -9.7489,8.7614 -5.6807,3.9742 -12.0695,6.8166 -18.5234,9.3488 -11.0191,4.3234 -22.3637,7.8168 -33.9061,10.441 -39.3026,8.8609 -80.7488,8.05 -119.6748,-2.3414 -2.2286,-0.5949 -4.449,-1.2207 -6.6624,-1.8701 -11.3345,-3.3257 -22.7086,-7.3926 -32.0348,-14.642 -6.0697,-4.7181 -11.1384,-10.7178 -14.7762,-17.4904 z"
         id="path4981"
         inkscape:path-effect="#path-effect4983"
         inkscape:original-d="m 2294.3219,1307.4514 0.017,98.5323 c 6.5036,12.2902 0.1038,7.5168 28.0883,11.8305 25.0573,2.5226 144.2455,12.3259 170.0546,2.9715 13.0486,-4.6595 23.8132,-12.3606 37.191,-20.7968 l -0.02,-84.7448 c -2.4923,3.8326 -11.2,4.7853 -9.7489,8.7614 3.0868,8.4571 -12.9398,5.9081 -18.5234,9.3488 -10.5931,6.5273 -20.7182,6.9811 -33.9061,10.441 -54.3855,10.5885 -105.9065,0.2039 -119.6748,-2.3414 0,0 -4.5544,-0.61 -6.6624,-1.8701 -9.1908,-5.4937 -36.7206,-9.6027 -32.0348,-14.642 33.4342,-35.9558 -13.1856,-15.217 -14.7762,-17.4904 z"
         inkscape:connector-curvature="0"
         sodipodi:nodetypes="ccccccssccsscc" />
      <path
         style="display:inline;fill:none;fill-rule:evenodd;stroke:#ffffff;stroke-width:11.36591721;stroke-linecap:round;stroke-linejoin:miter;stroke-miterlimit:4;stroke-dasharray:none;stroke-opacity:1"
         d="m 2294.1463,1258.7239 0.055,53.0348 c 0.1672,-8.6056 3.7985,-17.095 9.9063,-23.1596 4.3809,-4.3499 9.8672,-7.4034 15.4153,-10.1111 8.0161,-3.9122 16.3279,-7.2236 24.8563,-9.8367 14.995,-4.5945 30.5828,-7.01 46.2006,-8.4393 14.5287,-1.3297 29.1344,-1.8176 43.7195,-1.4607 18.9311,0.2391 37.8225,3.4003 55.8002,9.3373 8.4018,2.7746 16.7021,6.2059 23.8024,11.4855 3.5433,2.6347 6.7576,5.7115 9.5446,9.1364 1.9135,2.6649 3.452,5.5985 4.5562,8.6878 2.1865,6.1171 2.6353,12.8447 1.2808,19.198"
         id="path4987"
         inkscape:path-effect="#path-effect4989"
         inkscape:original-d="m 2294.1463,1258.7239 c -1.1493,12.3871 1.9216,47.0152 0.055,53.0348 0,0 -5.6438,-16.4603 9.9063,-23.1596 3.34,-1.5846 9.7734,-6.18 15.4153,-10.1111 5.2886,-3.6843 17.6321,-9.6212 24.8563,-9.8367 12.8084,-0.7183 26.0915,-7.0938 46.2006,-8.4393 19.7421,-1.5456 24.7162,-2.5162 43.7195,-1.4607 16.312,3.3702 47.011,5.1164 55.8002,9.3373 11.9778,5.8315 13.7718,5.2466 23.8024,11.4855 4.8992,3.0608 3.3715,5.4919 9.5446,9.1364 1.1381,1.3018 0.8753,5.8397 4.5562,8.6878 5.4424,4.3589 0.4566,8.3378 1.2808,19.198"
         inkscape:connector-curvature="0"
         sodipodi:nodetypes="cccscccccccc" />
      <g
         transform="matrix(6.8456329,0,0,-6.8456329,301.09815,902.6849)"
         inkscape:label="ink_ext_XXXXXX"
         id="g4146">
        <g
           transform="scale(0.1)"
           id="g4148">
          <path
             inkscape:connector-curvature="0"
             id="path4150"
             style="fill:#ffffff;fill-opacity:1;fill-rule:nonzero;stroke:none"
             d="M 767.27,625.512 V 258.281 h 236.75 v 55.778 H 839.531 V 625.512 H 767.27" />
          <path
             inkscape:connector-curvature="0"
             id="path4152"
             style="fill:#ffffff;fill-opacity:1;fill-rule:nonzero;stroke:none"
             d="M 1047.73,258.281 H 1120 v 264.297 h -72.27 V 258.281 m 36.14,287.071 c 22.65,0 41.52,18.398 41.52,41.679 0,22.77 -18.87,41.719 -41.52,41.719 -23.21,0 -41.53,-18.949 -41.53,-41.719 0,-23.281 18.32,-41.679 41.53,-41.679" />
          <path
             inkscape:connector-curvature="0"
             id="path4154"
             style="fill:#ffffff;fill-opacity:1;fill-rule:nonzero;stroke:none"
             d="m 1245.86,491.719 h -1.06 v 156.519 h -72.3 V 258.281 h 70.66 l 1.64,30.86 h 1.06 c 22.66,-25.43 45.31,-36.289 82.54,-36.289 70.12,0 116.48,63.398 116.48,142.457 0,76.371 -41.52,132.703 -113.24,132.703 -38.32,0 -60.98,-11.371 -85.78,-36.293 m -1.06,-95.309 c 0,45.469 20.47,75.82 59.34,75.82 43.13,0 64.69,-30.859 64.69,-81.25 0,-49.851 -21.02,-82.308 -63.63,-82.308 -37.23,0 -60.4,29.219 -60.4,75.816 v 11.922" />
          <path
             inkscape:connector-curvature="0"
             id="path4156"
             style="fill:#ffffff;fill-opacity:1;fill-rule:nonzero;stroke:none"
             d="m 1638.83,528.012 c -34.49,-2.153 -67.42,-23.282 -82.5,-52.543 h -1.1 l -1.6,47.109 h -70.66 V 258.281 h 72.26 v 99.649 c 0,53.09 9.73,72.031 26.45,83.949 14.53,10.312 31.8,14.641 55.55,15.742 l 1.6,70.391" />
          <path
             inkscape:connector-curvature="0"
             id="path4158"
             style="fill:#ffffff;fill-opacity:1;fill-rule:nonzero;stroke:none"
             d="m 1904.77,406.129 c 0,65.551 -39.93,121.883 -108.95,121.883 -83.09,0 -136.48,-57.422 -136.48,-144.614 0,-85.039 55.04,-130.546 136.48,-130.546 38.28,0 65.27,5.976 90.63,17.347 l -7.58,54.18 c -23.71,-9.77 -48.01,-15.707 -73.87,-15.707 -43.71,0 -71.76,20.039 -74.45,61.168 h 170.97 c 2.19,9.769 3.25,24.93 3.25,36.289 m -116.49,66.101 c 31.29,0 45.82,-25.468 46.92,-52.539 h -101.96 c 5.39,30.309 26.45,52.539 55.04,52.539" />
          <path
             inkscape:connector-curvature="0"
             id="path4160"
             style="fill:#ffffff;fill-opacity:1;fill-rule:nonzero;stroke:none"
             d="m 2124.18,630.898 c -97.07,0 -176.91,-70.937 -176.91,-189.019 0,-118.051 79.84,-189.027 176.91,-189.027 97.11,0 176.95,70.976 176.95,189.027 0,118.082 -79.84,189.019 -176.95,189.019 m 0,-36.796 c 72.3,0 127.3,-54.18 127.3,-152.223 0,-98.008 -55,-152.188 -127.3,-152.188 -72.27,0 -127.27,54.18 -127.27,152.188 0,98.043 55,152.223 127.27,152.223" />
          <path
             inkscape:connector-curvature="0"
             id="path4162"
             style="fill:#ffffff;fill-opacity:1;fill-rule:nonzero;stroke:none"
             d="m 2370.2,537.23 v -16.8 h -42.62 v -34.649 h 42.62 v -227.5 h 45.31 v 227.5 h 66.87 v 34.649 h -66.87 v 23.832 c 0,47.109 19.96,74.718 56.09,74.718 16.72,0 27.5,-2.691 37.78,-6.48 l 4.29,33.59 c -9.72,3.789 -28.05,7.582 -42.62,7.582 -64.17,0 -100.85,-41.723 -100.85,-116.442" />
          <path
             inkscape:connector-curvature="0"
             id="path4164"
             style="fill:#ffffff;fill-opacity:1;fill-rule:nonzero;stroke:none"
             d="m 2520.82,537.23 v -16.8 h -42.62 v -34.649 h 42.62 v -227.5 h 45.31 v 227.5 h 66.88 v 34.649 h -66.88 v 23.832 c 0,47.109 19.96,74.718 56.1,74.718 16.72,0 27.5,-2.691 37.77,-6.48 l 4.3,33.59 c -9.69,3.789 -28.05,7.582 -42.62,7.582 -64.18,0 -100.86,-41.723 -100.86,-116.442" />
          <path
             inkscape:connector-curvature="0"
             id="path4166"
             style="fill:#ffffff;fill-opacity:1;fill-rule:nonzero;stroke:none"
             d="m 2685.51,258.281 h 45.31 V 520.43 h -45.31 V 258.281 m 22.65,300.59 c 15.63,0 28.05,12.457 28.05,28.16 0,15.699 -12.42,28.168 -28.05,28.168 -15.66,0 -28.04,-12.469 -28.04,-28.168 0,-15.703 12.38,-28.16 28.04,-28.16" />
          <path
             inkscape:connector-curvature="0"
             id="path4168"
             style="fill:#ffffff;fill-opacity:1;fill-rule:nonzero;stroke:none"
             d="m 2825,390.43 c 0,66.09 39.38,100.742 90.62,100.742 27,0 50.71,-6.481 70.12,-15.703 l 4.34,34.652 c -16.21,8.117 -42.07,15.738 -70.67,15.738 -80.89,0 -141.87,-49.3 -141.87,-141.371 0,-86.679 55.04,-131.636 127.85,-131.636 32.34,0 55.55,3.789 81.99,15.199 l -4.33,34.648 c -22.66,-10.277 -46.92,-15.16 -69.57,-15.16 -52.31,0 -88.48,33.051 -88.48,102.891" />
          <path
             inkscape:connector-curvature="0"
             id="path4170"
             style="fill:#ffffff;fill-opacity:1;fill-rule:nonzero;stroke:none"
             d="m 3245.62,379.059 c 1.1,9.769 1.65,17.89 1.65,26.019 0,67.152 -35.08,120.781 -102.5,120.781 -72.82,0 -126.22,-60.66 -126.22,-141.371 0,-88.828 53.4,-131.636 126.22,-131.636 32.38,0 56.64,4.878 81.99,15.199 l -4.34,34.648 c -19.96,-9.769 -48.51,-15.16 -71.17,-15.16 -52.34,0 -86.33,31.949 -87.38,91.52 h 181.75 m -104.64,112.113 c 39.92,0 61.48,-33.051 61.48,-76.371 h -136.44 c 6.48,46.058 31.83,76.371 74.96,76.371" />
          <path
             inkscape:connector-curvature="0"
             id="path4172"
             style="fill:#ffffff;fill-opacity:1;fill-rule:nonzero;stroke:none"
             d="M 875.469,167.27 H 767.27 v -15.551 h 44.64 V 12.2305 h 18.442 V 151.719 h 45.117 v 15.551" />
          <path
             inkscape:connector-curvature="0"
             id="path4174"
             style="fill:#ffffff;fill-opacity:1;fill-rule:nonzero;stroke:none"
             d="m 911.09,104.609 v 72.27 H 892.621 V 12.2305 h 18.469 v 60.8203 c 0,22.8906 13.441,36.5972 29.93,36.5972 17.14,0 21.32,-10.0777 21.32,-31.3277 V 12.2305 h 18.48 v 72.0312 c 0,26.9883 -11.871,40.9373 -34.531,40.9373 -15.82,0 -27.269,-9.148 -34.73,-20.59 h -0.469" />
          <path
             inkscape:connector-curvature="0"
             id="path4176"
             style="fill:#ffffff;fill-opacity:1;fill-rule:nonzero;stroke:none"
             d="m 1098.24,63.2383 c 0.43,4.1015 0.67,7.543 0.67,10.9414 0,28.3593 -14.3,51.0193 -41.8,51.0193 -29.69,0 -51.45,-25.6287 -51.45,-59.6873 0,-37.5 21.76,-55.55076 51.45,-55.55076 13.2,0 23.09,2.02736 33.44,6.41016 l -1.76,14.6094 c -8.13,-4.1016 -19.81,-6.4102 -29.02,-6.4102 -21.37,0 -35.2,13.5195 -35.67,38.668 h 74.14 m -42.65,47.3127 c 16.25,0 25.07,-13.9494 25.07,-32.2307 H 1025 c 2.66,19.4102 12.97,32.2307 30.59,32.2307" />
          <path
             inkscape:connector-curvature="0"
             id="path4178"
             style="fill:#ffffff;fill-opacity:1;fill-rule:nonzero;stroke:none"
             d="M 1174.84,165.199 V 13.5898 c 10.78,-1.6015 26.64,-2.5 38.52,-2.5 45.08,0 87.54,27.2305 87.54,83.4415 0,49.4177 -32.58,73.8667 -87.11,73.8667 -12.11,0 -26.17,-0.898 -38.95,-3.199 m 18.48,-13.719 c 6.84,1.141 14.3,1.372 22.46,1.372 41.99,0 64.88,-23.321 64.88,-60.5825 0,-44.1484 -29.49,-65.6289 -65.11,-65.6289 -6.8,0 -14.5,0.2383 -22.23,0.8985 V 151.48" />
          <path
             inkscape:connector-curvature="0"
             id="path4180"
             style="fill:#ffffff;fill-opacity:1;fill-rule:nonzero;stroke:none"
             d="m 1369.61,125.199 c -32.11,0 -51.25,-25.16 -51.25,-57.6209 0,-32.457 19.14,-57.61716 51.25,-57.61716 32.11,0 51.25,25.16016 51.25,57.61716 0,32.4609 -19.14,57.6209 -51.25,57.6209 m 0,-100.6287 c -22.19,0 -31.88,19.918 -31.88,43.0078 0,23.0821 9.69,42.9729 31.88,42.9729 22.23,0 31.91,-19.8908 31.91,-42.9729 0,-23.0898 -9.68,-43.0078 -31.91,-43.0078" />
          <path
             inkscape:connector-curvature="0"
             id="path4182"
             style="fill:#ffffff;fill-opacity:1;fill-rule:nonzero;stroke:none"
             d="m 1458.44,68.0117 c 0,27.9297 16.05,42.5393 36.95,42.5393 10.98,0 20.66,-2.742 28.59,-6.641 l 1.76,14.641 c -6.6,3.437 -17.15,6.648 -28.83,6.648 -32.96,0 -57.81,-20.82 -57.81,-59.6873 0,-36.5625 22.42,-55.55076 52.11,-55.55076 13.2,0 22.66,1.59766 33.44,6.41016 l -1.76,14.6094 c -9.26,-4.3399 -19.14,-6.4102 -28.4,-6.4102 -21.33,0 -36.05,13.9492 -36.05,43.4414" />
          <path
             inkscape:connector-curvature="0"
             id="path4184"
             style="fill:#ffffff;fill-opacity:1;fill-rule:nonzero;stroke:none"
             d="m 1617.66,30.5508 0.62,-18.3203 h 17.85 V 122.891 h -18.47 V 62.0703 c 0,-22.8515 -13.44,-36.5586 -29.93,-36.5586 -17.14,0 -21.32,10.0391 -21.32,31.3281 v 66.0512 h -18.48 V 50.8594 c 0,-26.9492 11.87,-40.89846 34.53,-40.89846 15.82,0 27.27,9.14066 34.73,20.58986 h 0.47" />
          <path
             inkscape:connector-curvature="0"
             id="path4186"
             style="fill:#ffffff;fill-opacity:1;fill-rule:nonzero;stroke:none"
             d="M 1799.49,80.5898 V 12.2305 h 18.48 v 74.3281 c 0,24.6914 -11.02,38.6404 -32.11,38.6404 -15.2,0 -27.27,-10.078 -34.3,-24.929 h -0.66 c -4.18,15.55 -13.01,24.929 -29.92,24.929 -15.2,0 -24.85,-8.48 -32.35,-20.59 h -0.43 l -0.66,18.282 h -17.81 V 12.2305 h 18.47 v 56.25 c 0,24.9179 10.55,41.1675 27.07,41.1675 13.83,0 19.34,-10.0777 19.34,-29.0582 V 12.2305 h 18.48 v 56.25 c 0,25.3906 10.54,41.1675 27.07,41.1675 13.82,0 19.33,-10.0777 19.33,-29.0582" />
          <path
             inkscape:connector-curvature="0"
             id="path4188"
             style="fill:#ffffff;fill-opacity:1;fill-rule:nonzero;stroke:none"
             d="m 1935.04,63.2383 c 0.43,4.1015 0.66,7.543 0.66,10.9414 0,28.3593 -14.29,51.0193 -41.79,51.0193 -29.69,0 -51.45,-25.6287 -51.45,-59.6873 0,-37.5 21.76,-55.55076 51.45,-55.55076 13.2,0 23.08,2.02736 33.43,6.41016 l -1.75,14.6094 c -8.13,-4.1016 -19.81,-6.4102 -29.03,-6.4102 -21.33,0 -35.19,13.5195 -35.62,38.668 h 74.1 m -42.66,47.3127 c 16.29,0 25.08,-13.9494 25.08,-32.2307 h -55.66 c 2.65,19.4102 12.97,32.2307 30.58,32.2307" />
          <path
             inkscape:connector-curvature="0"
             id="path4190"
             style="fill:#ffffff;fill-opacity:1;fill-rule:nonzero;stroke:none"
             d="m 1980.31,104.609 -0.66,18.282 h -17.81 V 12.2305 h 18.47 v 60.8203 c 0,22.8906 13.4,36.5972 29.92,36.5972 17.15,0 21.33,-10.0777 21.33,-31.3277 V 12.2305 h 18.48 v 72.0312 c 0,26.9883 -11.88,40.9373 -34.53,40.9373 -15.86,0 -27.27,-9.148 -34.77,-20.59 h -0.43" />
          <path
             inkscape:connector-curvature="0"
             id="path4192"
             style="fill:#ffffff;fill-opacity:1;fill-rule:nonzero;stroke:none"
             d="m 2132.46,122.891 h -25.51 v 24.488 h -18.47 v -24.488 h -16.92 v -14.61 h 16.92 V 39.4492 c 0,-20.1094 10.54,-29.48826 27.73,-29.48826 8.99,0 14.96,0.89846 19.57,2.96876 l -1.99,13.9492 c -3.75,-1.6094 -7.7,-2.3086 -11.88,-2.3086 -10.78,0 -14.96,6.4102 -14.96,19.6914 v 64.0193 h 25.51 v 14.61" />
          <path
             inkscape:connector-curvature="0"
             id="path4194"
             style="fill:#ffffff;fill-opacity:1;fill-rule:nonzero;stroke:none"
             d="m 2227.73,12.2305 v 69.9609 h 53.44 v 15.5391 h -53.44 v 53.9885 h 60.94 v 15.551 h -79.41 V 12.2305 h 18.47" />
          <path
             inkscape:connector-curvature="0"
             id="path4196"
             style="fill:#ffffff;fill-opacity:1;fill-rule:nonzero;stroke:none"
             d="m 2355.47,125.199 c -32.11,0 -51.21,-25.16 -51.21,-57.6209 0,-32.457 19.1,-57.61716 51.21,-57.61716 32.11,0 51.25,25.16016 51.25,57.61716 0,32.4609 -19.14,57.6209 -51.25,57.6209 m 0,-100.6287 c -22.19,0 -31.88,19.918 -31.88,43.0078 0,23.0821 9.69,42.9729 31.88,42.9729 22.23,0 31.91,-19.8908 31.91,-42.9729 0,-23.0898 -9.68,-43.0078 -31.91,-43.0078" />
          <path
             inkscape:connector-curvature="0"
             id="path4198"
             style="fill:#ffffff;fill-opacity:1;fill-rule:nonzero;stroke:none"
             d="m 2501.25,30.5508 0.66,-18.3203 h 17.82 V 122.891 h -18.48 V 62.0703 c 0,-22.8515 -13.4,-36.5586 -29.88,-36.5586 -17.15,0 -21.33,10.0391 -21.33,31.3281 v 66.0512 h -18.48 V 50.8594 c 0,-26.9492 11.88,-40.89846 34.53,-40.89846 15.82,0 27.27,9.14066 34.73,20.58986 h 0.43" />
          <path
             inkscape:connector-curvature="0"
             id="path4200"
             style="fill:#ffffff;fill-opacity:1;fill-rule:nonzero;stroke:none"
             d="m 2571.84,104.609 -0.67,18.282 h -17.81 V 12.2305 h 18.48 v 60.8203 c 0,22.8906 13.39,36.5972 29.92,36.5972 17.15,0 21.33,-10.0777 21.33,-31.3277 V 12.2305 h 18.47 v 72.0312 c 0,26.9883 -11.87,40.9373 -34.53,40.9373 -15.86,0 -27.26,-9.148 -34.76,-20.59 h -0.43" />
          <path
             inkscape:connector-curvature="0"
             id="path4202"
             style="fill:#ffffff;fill-opacity:1;fill-rule:nonzero;stroke:none"
             d="m 2748.63,105.738 c -7.93,13.524 -19.37,19.461 -34.33,19.461 -28.6,0 -47.93,-24.687 -47.93,-59.6873 0,-33.4023 17.38,-55.55076 46.64,-55.55076 15.39,0 27.26,7.30856 35.62,19.41796 h 0.43 l 0.67,-17.1484 h 17.81 V 176.879 h -18.48 v -71.141 h -0.43 m 0.43,-44.7966 c 0,-19.2226 -11.44,-36.3711 -30.35,-36.3711 -21.33,0 -32.97,17.3789 -32.97,42.7695 0,26.0586 11.21,43.2112 32.54,43.2112 16.92,0 30.78,-15.0822 30.78,-36.3713 V 60.9414" />
          <path
             inkscape:connector-curvature="0"
             id="path4204"
             style="fill:#ffffff;fill-opacity:1;fill-rule:nonzero;stroke:none"
             d="m 2838.16,125.199 c -10.78,0 -21.52,-1.84 -32.96,-6.41 l 1.75,-14.648 c 10.78,4.339 19.57,6.41 28.6,6.41 16.25,0 23.08,-9.852 23.08,-25.3908 v -3.211 c -5.04,0.9414 -9.88,1.4102 -17.58,1.4102 -27.07,0 -47.53,-13.9492 -47.53,-38.1992 0,-22.6211 16.05,-35.19926 33.24,-35.19926 14.06,0 25.7,7.53906 31.44,19.41796 h 0.43 l 0.67,-17.1484 h 17.81 v 75 c 0,24.9175 -14.3,37.9685 -38.95,37.9685 m 20.47,-65.3982 c 0,-21.9492 -10.78,-35.2305 -26.4,-35.2305 -11.21,0 -18.91,8.4805 -18.91,21.9492 0,14.6524 9.02,24.2618 30.59,24.2618 5.5,0 10.31,-0.7032 14.72,-1.3711 v -9.6094" />
          <path
             inkscape:connector-curvature="0"
             id="path4206"
             style="fill:#ffffff;fill-opacity:1;fill-rule:nonzero;stroke:none"
             d="m 2959.41,122.891 h -25.54 v 24.488 h -18.48 v -24.488 h -16.91 v -14.61 h 16.91 V 39.4492 c 0,-20.1094 10.59,-29.48826 27.73,-29.48826 9.03,0 14.97,0.89846 19.58,2.96876 l -2,13.9492 c -3.71,-1.6094 -7.69,-2.3086 -11.87,-2.3086 -10.78,0 -14.96,6.4102 -14.96,19.6914 v 64.0193 h 25.54 v 14.61" />
          <path
             inkscape:connector-curvature="0"
             id="path4208"
             style="fill:#ffffff;fill-opacity:1;fill-rule:nonzero;stroke:none"
             d="m 2986.37,12.2305 h 18.47 V 122.891 h -18.47 V 12.2305 m 9.22,126.9105 c 6.4,0 11.44,5.238 11.44,11.879 0,6.64 -5.04,11.91 -11.44,11.91 -6.37,0 -11.41,-5.27 -11.41,-11.91 0,-6.641 5.04,-11.879 11.41,-11.879" />
          <path
             inkscape:connector-curvature="0"
             id="path4210"
             style="fill:#ffffff;fill-opacity:1;fill-rule:nonzero;stroke:none"
             d="m 3081.88,125.199 c -32.11,0 -51.26,-25.16 -51.26,-57.6209 0,-32.457 19.15,-57.61716 51.26,-57.61716 32.1,0 51.24,25.16016 51.24,57.61716 0,32.4609 -19.14,57.6209 -51.24,57.6209 m 0,-100.6287 c -22.19,0 -31.88,19.918 -31.88,43.0078 0,23.0821 9.69,42.9729 31.88,42.9729 22.22,0 31.91,-19.8908 31.91,-42.9729 0,-23.0898 -9.69,-43.0078 -31.91,-43.0078" />
          <path
             inkscape:connector-curvature="0"
             id="path4212"
             style="fill:#ffffff;fill-opacity:1;fill-rule:nonzero;stroke:none"
             d="m 3177.54,104.609 -0.66,18.282 h -17.82 V 12.2305 h 18.48 v 60.8203 c 0,22.8906 13.4,36.5972 29.88,36.5972 17.19,0 21.37,-10.0777 21.37,-31.3277 V 12.2305 h 18.48 v 72.0312 c 0,26.9883 -11.92,40.9373 -34.54,40.9373 -15.85,0 -27.3,-9.148 -34.76,-20.59 h -0.43" />
          <path
             inkscape:connector-curvature="0"
             id="path4214"
             style="fill:#ffffff;fill-opacity:1;fill-rule:evenodd;stroke:none"
             d="m 375.391,633.949 c -6.012,0.153 -11.993,-3.64 -14.34,-9.109 -2.34,-5.461 -0.973,-12.301 3.328,-16.481 l 129.57,-130 c 4.172,-4.179 10.973,-5.589 16.481,-3.359 5.55,2.23 9.449,7.891 9.492,13.75 v 130.23 c 0,7.86 -7.223,15 -15.192,14.969 z" />
          <path
             inkscape:connector-curvature="0"
             id="path4216"
             style="fill:#ffffff;fill-opacity:1;fill-rule:evenodd;stroke:none"
             d="M 19.1406,633.949 C 11.1719,633.828 3.98047,626.559 3.98047,618.59 V 25.3516 c 0,-7.9727 7.19143,-15.2735 15.16013,-15.39066 H 504.531 c 8.047,0 15.391,7.30856 15.391,15.39066 V 407.379 c 0,4.031 -1.641,8.051 -4.492,10.902 L 305.469,629.262 c -2.809,2.929 -6.84,4.648 -10.899,4.687 z m 15.3477,-30.75 H 288.121 L 489.18,401.172 V 40.6992 H 34.4883 Z" />
        </g>
      </g>
      <path
         style="fill:#ffffff;fill-opacity:1;fill-rule:evenodd;stroke:none;stroke-width:1px;stroke-linecap:butt;stroke-linejoin:miter;stroke-opacity:1"
         d="m 837.86708,1339.5498 v 15.4935 l 205.29972,-0.052 v -15.4936 z"
         id="path4687"
         inkscape:connector-curvature="0"
         sodipodi:nodetypes="ccccc" />
    </g>
  </g>
</svg>
