<?xml version="1.0" encoding="UTF-8" standalone="no"?>
<!-- Created with Inkscape (http://www.inkscape.org/) -->

<svg
   xmlns:dc="http://purl.org/dc/elements/1.1/"
   xmlns:cc="http://creativecommons.org/ns#"
   xmlns:rdf="http://www.w3.org/1999/02/22-rdf-syntax-ns#"
   xmlns:svg="http://www.w3.org/2000/svg"
   xmlns="http://www.w3.org/2000/svg"
   xmlns:sodipodi="http://sodipodi.sourceforge.net/DTD/sodipodi-0.dtd"
   xmlns:inkscape="http://www.inkscape.org/namespaces/inkscape"
   version="1.1"
   id="svg2"
   xml:space="preserve"
   width="167.14525"
   height="190.67503"
   viewBox="0 0 167.14525 190.67503"
   sodipodi:docname="Sticker-hexagon.svg"
   inkscape:version="0.92.2 (5c3e80d, 2017-08-06)"
   inkscape:export-filename="/home/anxhelo/Desktop/Sticker-hexagon.png"
   inkscape:export-xdpi="96.010803"
   inkscape:export-ydpi="96.010803"><metadata
     id="metadata8"><rdf:RDF><cc:Work
         rdf:about=""><dc:format>image/svg+xml</dc:format><dc:type
           rdf:resource="http://purl.org/dc/dcmitype/StillImage" /><dc:title></dc:title></cc:Work></rdf:RDF></metadata><defs
     id="defs6" /><sodipodi:namedview
     pagecolor="#ffffff"
     bordercolor="#666666"
     borderopacity="1"
     objecttolerance="10"
     gridtolerance="10"
     guidetolerance="10"
     inkscape:pageopacity="0"
     inkscape:pageshadow="2"
     inkscape:window-width="1366"
     inkscape:window-height="713"
     id="namedview4"
     showgrid="false"
     inkscape:zoom="1.2377079"
     inkscape:cx="98.921685"
     inkscape:cy="203.06618"
     inkscape:window-x="0"
     inkscape:window-y="0"
     inkscape:window-maximized="1"
     inkscape:current-layer="g10" /><g
     id="g10"
     inkscape:groupmode="layer"
     inkscape:label="Sticker_TDF_2"
     transform="matrix(1.3333333,0,0,1.3333333,0,6.7668757e-6)"><g
       id="g12"><path
         d="M 125.359,107.254 62.68,143.008 0,107.254 V 35.75 L 62.68,0 125.359,35.75 Z"
         style="fill:#51b749;fill-opacity:1;fill-rule:nonzero;stroke:none"
         id="path14"
         inkscape:connector-curvature="0" /><path
         d="m 73.422,41.953 c -0.567,-0.015 -1.133,0.344 -1.356,0.863 -0.222,0.516 -0.093,1.164 0.313,1.563 l 12.273,12.312 c 0.395,0.395 1.039,0.528 1.563,0.317 0.523,-0.211 0.894,-0.746 0.898,-1.301 V 43.371 c 0,-0.746 -0.683,-1.422 -1.441,-1.418 z"
         style="fill:#ffffff;fill-opacity:1;fill-rule:evenodd;stroke:none"
         id="path16"
         inkscape:connector-curvature="0" /><path
         d="m 39.684,41.953 c -0.758,0.012 -1.438,0.699 -1.438,1.457 v 56.184 c 0,0.758 0.68,1.449 1.438,1.461 h 45.972 c 0.762,0 1.457,-0.696 1.457,-1.461 v -36.18 c 0,-0.383 -0.156,-0.766 -0.425,-1.035 L 66.801,42.398 C 66.535,42.121 66.152,41.957 65.77,41.953 Z m 1.453,2.914 H 65.156 L 84.199,64 V 98.141 H 41.137 Z"
         style="fill:#ffffff;fill-opacity:1;fill-rule:evenodd;stroke:none"
         id="path18"
         inkscape:connector-curvature="0" /></g></g></svg>