<?xml version="1.0" encoding="UTF-8" standalone="no"?>
<!-- Created with Inkscape (http://www.inkscape.org/) -->

<svg
   xmlns:dc="http://purl.org/dc/elements/1.1/"
   xmlns:cc="http://creativecommons.org/ns#"
   xmlns:rdf="http://www.w3.org/1999/02/22-rdf-syntax-ns#"
   xmlns:svg="http://www.w3.org/2000/svg"
   xmlns="http://www.w3.org/2000/svg"
   xmlns:sodipodi="http://sodipodi.sourceforge.net/DTD/sodipodi-0.dtd"
   xmlns:inkscape="http://www.inkscape.org/namespaces/inkscape"
   width="250cm"
   height="150cm"
   viewBox="0 0 2500.0002 1499.9999"
   version="1.1"
   id="svg8"
   inkscape:version="0.92.2 (5c3e80d, 2017-08-06)"
   sodipodi:docname="Tablecloth.svg"
   inkscape:export-filename="/home/anxhelo/Desktop/FILES/Tablecloth.png"
   inkscape:export-xdpi="96"
   inkscape:export-ydpi="96">
  <defs
     id="defs2">
    <inkscape:path-effect
       effect="spiro"
       id="path-effect5400"
       is_visible="true" />
    <inkscape:path-effect
       effect="spiro"
       id="path-effect5354"
       is_visible="true" />
    <inkscape:path-effect
       effect="spiro"
       id="path-effect5308"
       is_visible="true" />
    <inkscape:path-effect
       effect="spiro"
       id="path-effect5304"
       is_visible="true" />
    <inkscape:path-effect
       effect="spiro"
       id="path-effect4989"
       is_visible="true" />
    <inkscape:path-effect
       effect="spiro"
       id="path-effect4983"
       is_visible="true" />
    <clipPath
       id="clipPath5101"
       clipPathUnits="userSpaceOnUse">
      <path
         inkscape:connector-curvature="0"
         id="path5103"
         d="M 0,500 H 400 V 0 H 0 Z" />
    </clipPath>
    <rect
       height="8"
       width="8"
       id="p"
       x="0"
       y="0" />
    <clipPath
       id="clipPath8255"
       clipPathUnits="userSpaceOnUse">
      <path
         inkscape:connector-curvature="0"
         id="path8253"
         d="M 0,595.28 H 841.89 V 0 H 0 Z" />
    </clipPath>
    <clipPath
       id="clipPath8263"
       clipPathUnits="userSpaceOnUse">
      <path
         inkscape:connector-curvature="0"
         id="path8261"
         d="M 528.316,104.829 H 686.928 V 85.0493 H 528.316 Z" />
    </clipPath>
    <clipPath
       id="clipPath8355"
       clipPathUnits="userSpaceOnUse">
      <path
         inkscape:connector-curvature="0"
         id="path8353"
         d="m 568.164,236.337 h 79.307 v -22.376 h -79.307 z" />
    </clipPath>
    <clipPath
       id="clipPath8371"
       clipPathUnits="userSpaceOnUse">
      <path
         inkscape:connector-curvature="0"
         id="path8369"
         d="M 495.38,384.219 H 653.993 V 363.917 H 495.38 Z" />
    </clipPath>
    <clipPath
       id="clipPath8725"
       clipPathUnits="userSpaceOnUse">
      <path
         inkscape:connector-curvature="0"
         id="path8723"
         d="M 0,595.28 H 841.89 V 0 H 0 Z" />
    </clipPath>
    <clipPath
       id="clipPath8263-6"
       clipPathUnits="userSpaceOnUse">
      <path
         inkscape:connector-curvature="0"
         id="path8261-2"
         d="M 528.316,104.829 H 686.928 V 85.0493 H 528.316 Z" />
    </clipPath>
    <clipPath
       id="clipPath8355-5"
       clipPathUnits="userSpaceOnUse">
      <path
         inkscape:connector-curvature="0"
         id="path8353-4"
         d="m 568.164,236.337 h 79.307 v -22.376 h -79.307 z" />
    </clipPath>
    <clipPath
       id="clipPath8355-4"
       clipPathUnits="userSpaceOnUse">
      <path
         inkscape:connector-curvature="0"
         id="path8353-9"
         d="m 568.164,236.337 h 79.307 v -22.376 h -79.307 z" />
    </clipPath>
    <clipPath
       id="clipPath8355-49"
       clipPathUnits="userSpaceOnUse">
      <path
         inkscape:connector-curvature="0"
         id="path8353-0"
         d="m 568.164,236.337 h 79.307 v -22.376 h -79.307 z" />
    </clipPath>
    <clipPath
       id="clipPath8371-2"
       clipPathUnits="userSpaceOnUse">
      <path
         inkscape:connector-curvature="0"
         id="path8369-8"
         d="M 495.38,384.219 H 653.993 V 363.917 H 495.38 Z" />
    </clipPath>
  </defs>
  <sodipodi:namedview
     id="base"
     pagecolor="#ffffff"
     bordercolor="#666666"
     borderopacity="1.0"
     inkscape:pageopacity="0.0"
     inkscape:pageshadow="2"
     inkscape:zoom="0.056568542"
     inkscape:cx="4395.2645"
     inkscape:cy="3559.8487"
     inkscape:document-units="mm"
     inkscape:current-layer="g1940"
     inkscape:document-rotation="0"
     showgrid="false"
     borderlayer="true"
     inkscape:showpageshadow="false"
     units="cm"
     inkscape:pagecheckerboard="false"
     showguides="true"
     inkscape:window-width="1366"
     inkscape:window-height="713"
     inkscape:window-x="0"
     inkscape:window-y="0"
     inkscape:window-maximized="1">
    <inkscape:grid
       type="xygrid"
       id="grid10" />
  </sodipodi:namedview>
  <metadata
     id="metadata5">
    <rdf:RDF>
      <cc:Work
         rdf:about="">
        <dc:format>image/svg+xml</dc:format>
        <dc:type
           rdf:resource="http://purl.org/dc/dcmitype/StillImage" />
        <dc:title></dc:title>
      </cc:Work>
    </rdf:RDF>
  </metadata>
  <g
     inkscape:label="Layer 1"
     inkscape:groupmode="layer"
     id="layer1"
     transform="translate(0,1203)">
    <g
       id="g1940"
       transform="matrix(0.28222222,0,0,0.28222222,-2277.8211,2982.9172)" />
    <rect
       style="opacity:1;fill:#51b749;fill-opacity:1;fill-rule:nonzero;stroke:none;stroke-width:0.54202884;stroke-linecap:butt;stroke-linejoin:miter;stroke-miterlimit:4;stroke-dasharray:none;stroke-opacity:1;paint-order:normal"
       id="rect1942"
       width="2500"
       height="1500"
       x="0"
       y="-1203" />
    <g
       id="g2452"
       transform="matrix(-1.7389413,0,0,-1.7389413,3364.6854,-2841.3782)">
      <path
         d="m 1050.2431,-1116.1345 v 70.9486 h 45.7398 v -10.7762 h -31.7791 v -60.1724 h -13.9607"
         style="fill:#ffffff;fill-opacity:1;fill-rule:nonzero;stroke:none;stroke-width:0.19319896"
         id="path4150-6"
         inkscape:connector-curvature="0" />
      <path
         d="m 1104.4276,-1045.1859 h 13.9625 v -51.0619 h -13.9625 v 51.0619 m 6.9823,-55.4618 c 4.3759,0 8.0216,-3.5545 8.0216,-8.0523 0,-4.3992 -3.6457,-8.0601 -8.0216,-8.0601 -4.4842,0 -8.0236,3.6609 -8.0236,8.0601 0,4.4978 3.5394,8.0523 8.0236,8.0523"
         style="fill:#ffffff;fill-opacity:1;fill-rule:nonzero;stroke:none;stroke-width:0.19319896"
         id="path4152-1"
         inkscape:connector-curvature="0" />
      <path
         d="m 1142.7062,-1090.2858 h -0.2048 v -30.2394 h -13.9683 v 75.3393 h 13.6514 l 0.3169,-5.9621 h 0.2048 c 4.3778,4.9131 8.7538,7.011 15.9466,7.011 13.5471,0 22.5038,-12.2484 22.5038,-27.5225 0,-14.7548 -8.0216,-25.6381 -21.8778,-25.6381 -7.4034,0 -11.7813,2.1968 -16.5726,7.0118 m -0.2048,18.4136 c 0,-8.7846 3.9547,-14.6484 11.4644,-14.6484 8.3327,0 12.498,5.9619 12.498,15.6974 0,9.6312 -4.061,15.9018 -12.2932,15.9018 -7.1928,0 -11.6692,-5.645 -11.6692,-14.6475 v -2.3033"
         style="fill:#ffffff;fill-opacity:1;fill-rule:nonzero;stroke:none;stroke-width:0.19319896"
         id="path4154-06"
         inkscape:connector-curvature="0" />
      <path
         d="m 1218.6276,-1097.2976 c -6.6635,0.4159 -13.0255,4.498 -15.939,10.1512 h -0.2125 l -0.3091,-9.1014 h -13.6514 v 51.0619 h 13.9605 v -19.252 c 0,-10.257 1.8799,-13.9164 5.1101,-16.2189 2.8072,-1.9923 6.1438,-2.8286 10.7322,-3.0413 l 0.3092,-13.5995"
         style="fill:#ffffff;fill-opacity:1;fill-rule:nonzero;stroke:none;stroke-width:0.19319896"
         id="path4156-1"
         inkscape:connector-curvature="0" />
      <path
         d="m 1270.0069,-1073.7499 c 0,-12.6644 -7.7144,-23.5477 -21.049,-23.5477 -16.053,0 -26.3678,11.0939 -26.3678,27.9393 0,16.4294 10.6336,25.2213 26.3678,25.2213 7.3956,0 12.61,-1.1545 17.5096,-3.3514 l -1.4645,-10.4675 c -4.5807,1.8875 -9.2754,3.0345 -14.2716,3.0345 -8.4447,0 -13.8639,-3.8715 -14.3836,-11.8176 h 33.0312 c 0.4231,-1.8873 0.6279,-4.8164 0.6279,-7.0109 m -22.5058,-12.7707 c 6.0452,0 8.8524,4.9204 9.0649,10.1505 h -19.6985 c 1.0413,-5.8557 5.1101,-10.1505 10.6336,-10.1505"
         style="fill:#ffffff;fill-opacity:1;fill-rule:nonzero;stroke:none;stroke-width:0.19319896"
         id="path4158-5"
         inkscape:connector-curvature="0" />
      <path
         d="m 1312.3967,-1117.1751 c -18.7538,0 -34.1789,13.705 -34.1789,36.5183 0,22.8073 15.4251,36.5198 34.1789,36.5198 18.7615,0 34.1865,-13.7125 34.1865,-36.5198 0,-22.8133 -15.425,-36.5183 -34.1865,-36.5183 m 0,7.109 c 13.9683,0 24.5942,10.4675 24.5942,29.4093 0,18.935 -10.6259,29.4026 -24.5942,29.4026 -13.9625,0 -24.5885,-10.4676 -24.5885,-29.4026 0,-18.9418 10.626,-29.4093 24.5885,-29.4093"
         style="fill:#ffffff;fill-opacity:1;fill-rule:nonzero;stroke:none;stroke-width:0.19319896"
         id="path4160-9"
         inkscape:connector-curvature="0" />
      <path
         d="m 1359.9275,-1099.0785 v 3.2457 h -8.2342 v 6.6942 h 8.2342 v 43.9527 h 8.7538 v -43.9527 h 12.9192 v -6.6942 h -12.9192 v -4.6043 c 0,-9.1014 3.8563,-14.4354 10.8366,-14.4354 3.2302,0 5.3129,0.5199 7.299,1.2519 l 0.8288,-6.4896 c -1.8778,-0.732 -5.4192,-1.4648 -8.2341,-1.4648 -12.3976,0 -19.4841,8.0608 -19.4841,22.4965"
         style="fill:#ffffff;fill-opacity:1;fill-rule:nonzero;stroke:none;stroke-width:0.19319896"
         id="path4162-4"
         inkscape:connector-curvature="0" />
      <path
         d="m 1389.0271,-1099.0785 v 3.2457 h -8.2341 v 6.6942 h 8.2341 v 43.9527 h 8.7539 v -43.9527 h 12.9211 v -6.6942 h -12.9211 v -4.6043 c 0,-9.1014 3.8562,-14.4354 10.8384,-14.4354 3.2303,0 5.313,0.5199 7.2972,1.2519 l 0.8307,-6.4896 c -1.8721,-0.732 -5.4192,-1.4648 -8.2341,-1.4648 -12.3995,0 -19.4861,8.0608 -19.4861,22.4965"
         style="fill:#ffffff;fill-opacity:1;fill-rule:nonzero;stroke:none;stroke-width:0.19319896"
         id="path4164-9"
         inkscape:connector-curvature="0" />
      <path
         d="m 1420.8451,-1045.1859 h 8.7538 v -50.6469 h -8.7538 v 50.6469 m 4.3759,-58.0736 c 3.0197,0 5.4192,-2.4067 5.4192,-5.4405 0,-3.0331 -2.3995,-5.4421 -5.4192,-5.4421 -3.0255,0 -5.4173,2.409 -5.4173,5.4421 0,3.0338 2.3918,5.4405 5.4173,5.4405"
         style="fill:#ffffff;fill-opacity:1;fill-rule:nonzero;stroke:none;stroke-width:0.19319896"
         id="path4166-0"
         inkscape:connector-curvature="0" />
      <path
         d="m 1447.7944,-1070.7169 c 0,-12.7685 7.6081,-19.4633 17.5077,-19.4633 5.2164,0 9.7971,1.2522 13.5471,3.0338 l 0.8385,-6.6947 c -3.1318,-1.5682 -8.1279,-3.0406 -13.6534,-3.0406 -15.6279,0 -27.4091,9.5247 -27.4091,27.3128 0,16.7463 10.6336,25.4319 24.7005,25.4319 6.248,0 10.7321,-0.732 15.8403,-2.9364 l -0.8365,-6.694 c -4.3779,1.9855 -9.0649,2.9289 -13.4409,2.9289 -10.1062,0 -17.0942,-6.3854 -17.0942,-19.8784"
         style="fill:#ffffff;fill-opacity:1;fill-rule:nonzero;stroke:none;stroke-width:0.19319896"
         id="path4168-9"
         inkscape:connector-curvature="0" />
      <path
         d="m 1529.0577,-1068.5201 c 0.2125,-1.8873 0.3188,-3.4563 0.3188,-5.0268 0,-12.9737 -6.7774,-23.3348 -19.8029,-23.3348 -14.0687,0 -24.3856,11.7195 -24.3856,27.3128 0,17.1614 10.3169,25.4319 24.3856,25.4319 6.2558,0 10.9428,-0.9424 15.8404,-2.9364 l -0.8385,-6.694 c -3.8562,1.8874 -9.3721,2.9289 -13.7499,2.9289 -10.1121,0 -16.6789,-6.1725 -16.8818,-17.6816 h 35.1139 m -20.2163,-21.6601 c 7.7125,0 11.8779,6.3855 11.8779,14.7548 h -26.3601 c 1.2519,-8.8983 6.1495,-14.7548 14.4822,-14.7548"
         style="fill:#ffffff;fill-opacity:1;fill-rule:nonzero;stroke:none;stroke-width:0.19319896"
         id="path4170-17"
         inkscape:connector-curvature="0" />
      <path
         d="m 1071.147,-1027.6026 h -20.9039 v 3.0044 h 8.6244 v 26.94903 h 3.5629 v -26.94903 h 8.7166 v -3.0044"
         style="fill:#ffffff;fill-opacity:1;fill-rule:nonzero;stroke:none;stroke-width:0.19319896"
         id="path4172-7"
         inkscape:connector-curvature="0" />
      <path
         d="m 1078.0289,-1015.4966 v -13.9625 h -3.5682 v 31.80993 h 3.5682 v -11.75043 c 0,-4.4224 2.5968,-7.0705 5.7825,-7.0705 3.3114,0 4.119,1.947 4.119,6.0525 v 12.76843 h 3.5703 v -13.91633 c 0,-5.2141 -2.2935,-7.9091 -6.6714,-7.9091 -3.0564,0 -5.2683,1.7674 -6.7098,3.978 h -0.091"
         style="fill:#ffffff;fill-opacity:1;fill-rule:nonzero;stroke:none;stroke-width:0.19319896"
         id="path4174-1"
         inkscape:connector-curvature="0" />
      <path
         d="m 1114.1861,-1007.5038 c 0.083,-0.7924 0.1295,-1.4573 0.1295,-2.1139 0,-5.479 -2.7628,-9.8569 -8.0758,-9.8569 -5.736,0 -9.94,4.9515 -9.94,11.5316 0,7.2449 4.204,10.73233 9.94,10.73233 2.5503,0 4.461,-0.3917 6.4606,-1.2384 l -0.34,-2.82253 c -1.5707,0.7924 -3.8273,1.2384 -5.6066,1.2384 -4.1287,0 -6.8006,-2.612 -6.8914,-7.4706 h 14.3237 m -8.2399,-9.1408 c 3.1395,0 4.8435,2.695 4.8435,6.227 h -10.7535 c 0.5139,-3.7501 2.5058,-6.227 5.91,-6.227"
         style="fill:#ffffff;fill-opacity:1;fill-rule:nonzero;stroke:none;stroke-width:0.19319896"
         id="path4176-1"
         inkscape:connector-curvature="0" />
      <path
         d="m 1128.9852,-1027.2025 v 29.29073 c 2.0826,0.3094 5.1468,0.483 7.442,0.483 8.7094,0 16.9126,-5.26093 16.9126,-16.12083 0,-9.5474 -6.2944,-14.271 -16.8295,-14.271 -2.3397,0 -5.0561,0.1735 -7.5251,0.6181 m 3.5703,2.6505 c 1.3215,-0.2205 2.7627,-0.2651 4.3392,-0.2651 8.1125,0 12.5348,4.5056 12.5348,11.7045 0,8.5294 -5.6975,12.6794 -12.5792,12.6794 -1.3138,0 -2.8014,-0.046 -4.2948,-0.1736 v -23.9452"
         style="fill:#ffffff;fill-opacity:1;fill-rule:nonzero;stroke:none;stroke-width:0.19319896"
         id="path4178-5"
         inkscape:connector-curvature="0" />
      <path
         d="m 1166.6145,-1019.4746 c -6.2036,0 -9.9014,4.8609 -9.9014,11.1323 0,6.2707 3.6978,11.13163 9.9014,11.13163 6.2037,0 9.9015,-4.86093 9.9015,-11.13163 0,-6.2714 -3.6978,-11.1323 -9.9015,-11.1323 m 0,19.4414 c -4.2871,0 -6.1592,-3.8481 -6.1592,-8.3091 0,-4.4594 1.8721,-8.3023 6.1592,-8.3023 4.2948,0 6.165,3.8429 6.165,8.3023 0,4.461 -1.8702,8.3091 -6.165,8.3091"
         style="fill:#ffffff;fill-opacity:1;fill-rule:nonzero;stroke:none;stroke-width:0.19319896"
         id="path4180-9"
         inkscape:connector-curvature="0" />
      <path
         d="m 1183.7764,-1008.426 c 0,-5.396 3.1008,-8.2186 7.1387,-8.2186 2.1213,0 3.9915,0.5298 5.5235,1.2831 l 0.3401,-2.8287 c -1.2751,-0.664 -3.3134,-1.2844 -5.5699,-1.2844 -6.3679,0 -11.1689,4.0224 -11.1689,11.5316 0,7.0638 4.3315,10.73233 10.0676,10.73233 2.5502,0 4.3779,-0.3087 6.4606,-1.2384 l -0.34,-2.82253 c -1.789,0.8384 -3.6979,1.2384 -5.4869,1.2384 -4.1209,0 -6.9648,-2.695 -6.9648,-8.3928"
         style="fill:#ffffff;fill-opacity:1;fill-rule:nonzero;stroke:none;stroke-width:0.19319896"
         id="path4182-7"
         inkscape:connector-curvature="0" />
      <path
         d="m 1214.5375,-1001.1886 0.1198,3.53943 h 3.4486 v -21.37953 h -3.5684 v 11.7505 c 0,4.4149 -2.5966,7.0631 -5.7824,7.0631 -3.3114,0 -4.119,-1.9395 -4.119,-6.0525 v -12.7611 h -3.5703 v 13.9165 c 0,5.20653 2.2932,7.90153 6.6711,7.90153 3.0564,0 5.2686,-1.766 6.7098,-3.97793 h 0.091"
         style="fill:#ffffff;fill-opacity:1;fill-rule:nonzero;stroke:none;stroke-width:0.19319896"
         id="path4184-7"
         inkscape:connector-curvature="0" />
      <path
         d="m 1249.6669,-1010.8561 v 13.20693 h 3.5703 v -14.36013 c 0,-4.7703 -2.129,-7.4653 -6.2036,-7.4653 -2.9366,0 -5.2685,1.9471 -6.6267,4.8163 h -0.1275 c -0.8076,-3.0042 -2.5136,-4.8163 -5.7806,-4.8163 -2.9366,0 -4.8009,1.6384 -6.2499,3.978 h -0.083 l -0.1275,-3.5321 h -3.4409 v 21.37953 h 3.5684 v -10.86743 c 0,-4.8141 2.0382,-7.9535 5.2299,-7.9535 2.6719,0 3.7364,1.947 3.7364,5.614 v 13.20693 h 3.5703 v -10.86743 c 0,-4.9054 2.0364,-7.9535 5.2299,-7.9535 2.6701,0 3.7346,1.947 3.7346,5.614"
         style="fill:#ffffff;fill-opacity:1;fill-rule:nonzero;stroke:none;stroke-width:0.19319896"
         id="path4186-6"
         inkscape:connector-curvature="0" />
      <path
         d="m 1275.855,-1007.5038 c 0.083,-0.7924 0.1275,-1.4573 0.1275,-2.1139 0,-5.479 -2.7608,-9.8569 -8.0738,-9.8569 -5.736,0 -9.94,4.9515 -9.94,11.5316 0,7.2449 4.204,10.73233 9.94,10.73233 2.5503,0 4.4591,-0.3917 6.4587,-1.2384 l -0.3381,-2.82253 c -1.5707,0.7924 -3.8273,1.2384 -5.6086,1.2384 -4.1209,0 -6.7986,-2.612 -6.8817,-7.4706 h 14.316 m -8.2419,-9.1408 c 3.1473,0 4.8455,2.695 4.8455,6.227 h -10.7535 c 0.512,-3.7501 2.5058,-6.227 5.908,-6.227"
         style="fill:#ffffff;fill-opacity:1;fill-rule:nonzero;stroke:none;stroke-width:0.19319896"
         id="path4188-7"
         inkscape:connector-curvature="0" />
      <path
         d="m 1284.6011,-1015.4966 -0.1275,-3.5321 h -3.4408 v 21.37953 h 3.5683 v -11.75043 c 0,-4.4224 2.5889,-7.0705 5.7806,-7.0705 3.3133,0 4.1209,1.947 4.1209,6.0525 v 12.76843 h 3.5703 v -13.91633 c 0,-5.2141 -2.2952,-7.9091 -6.6711,-7.9091 -3.0642,0 -5.2686,1.7674 -6.7176,3.978 h -0.083"
         style="fill:#ffffff;fill-opacity:1;fill-rule:nonzero;stroke:none;stroke-width:0.19319896"
         id="path4190-3"
         inkscape:connector-curvature="0" />
      <path
         d="m 1313.9964,-1019.0287 h -4.9285 v -4.731 h -3.5684 v 4.731 h -3.269 v 2.8227 h 3.269 v 13.2982 c 0,3.88513 2.0363,5.69713 5.3574,5.69713 1.7368,0 2.8902,-0.1736 3.7809,-0.5735 l -0.3845,-2.69503 c -0.7245,0.3109 -1.4876,0.446 -2.2952,0.446 -2.0827,0 -2.8902,-1.2384 -2.8902,-3.8044 v -12.3684 h 4.9285 v -2.8227"
         style="fill:#ffffff;fill-opacity:1;fill-rule:nonzero;stroke:none;stroke-width:0.19319896"
         id="path4192-6"
         inkscape:connector-curvature="0" />
      <path
         d="m 1332.4024,-997.64917 v -13.51633 h 10.3246 v -3.0022 h -10.3246 v -10.4305 h 11.7736 v -3.0044 h -15.3419 v 29.95343 h 3.5683"
         style="fill:#ffffff;fill-opacity:1;fill-rule:nonzero;stroke:none;stroke-width:0.19319896"
         id="path4194-5"
         inkscape:connector-curvature="0" />
      <path
         d="m 1357.0817,-1019.4746 c -6.2036,0 -9.8938,4.8609 -9.8938,11.1323 0,6.2707 3.6902,11.13163 9.8938,11.13163 6.2036,0 9.9014,-4.86093 9.9014,-11.13163 0,-6.2714 -3.6978,-11.1323 -9.9014,-11.1323 m 0,19.4414 c -4.2871,0 -6.1592,-3.8481 -6.1592,-8.3091 0,-4.4594 1.8721,-8.3023 6.1592,-8.3023 4.2948,0 6.1649,3.8429 6.1649,8.3023 0,4.461 -1.8701,8.3091 -6.1649,8.3091"
         style="fill:#ffffff;fill-opacity:1;fill-rule:nonzero;stroke:none;stroke-width:0.19319896"
         id="path4196-6"
         inkscape:connector-curvature="0" />
      <path
         d="m 1385.2462,-1001.1886 0.1275,3.53943 h 3.4428 v -21.37953 h -3.5703 v 11.7505 c 0,4.4149 -2.5889,7.0631 -5.7728,7.0631 -3.3133,0 -4.1209,-1.9395 -4.1209,-6.0525 v -12.7611 h -3.5703 v 13.9165 c 0,5.20653 2.2952,7.90153 6.6711,7.90153 3.0564,0 5.2686,-1.766 6.7098,-3.97793 h 0.083"
         style="fill:#ffffff;fill-opacity:1;fill-rule:nonzero;stroke:none;stroke-width:0.19319896"
         id="path4198-3"
         inkscape:connector-curvature="0" />
      <path
         d="m 1398.8841,-1015.4966 -0.1294,-3.5321 h -3.4409 v 21.37953 h 3.5703 v -11.75043 c 0,-4.4224 2.587,-7.0705 5.7805,-7.0705 3.3134,0 4.121,1.947 4.121,6.0525 v 12.76843 h 3.5684 v -13.91633 c 0,-5.2141 -2.2933,-7.9091 -6.6712,-7.9091 -3.0641,0 -5.2666,1.7674 -6.7156,3.978 h -0.083"
         style="fill:#ffffff;fill-opacity:1;fill-rule:nonzero;stroke:none;stroke-width:0.19319896"
         id="path4200-9"
         inkscape:connector-curvature="0" />
      <path
         d="m 1433.0398,-1015.7147 c -1.5321,-2.6128 -3.7423,-3.7599 -6.6325,-3.7599 -5.5255,0 -9.2601,4.7695 -9.2601,11.5316 0,6.4533 3.3578,10.73233 9.0108,10.73233 2.9734,0 5.2666,-1.412 6.8818,-3.75153 h 0.083 l 0.1294,3.31303 h 3.4409 v -31.80993 h -3.5703 v 13.7444 h -0.083 m 0.083,8.6546 c 0,3.7138 -2.2102,7.0269 -5.8636,7.0269 -4.121,0 -6.3698,-3.3576 -6.3698,-8.263 0,-5.0345 2.1658,-8.3484 6.2867,-8.3484 3.2689,0 5.9467,2.9139 5.9467,7.0269 v 2.5576"
         style="fill:#ffffff;fill-opacity:1;fill-rule:nonzero;stroke:none;stroke-width:0.19319896"
         id="path4202-4"
         inkscape:connector-curvature="0" />
      <path
         d="m 1450.3369,-1019.4746 c -2.0827,0 -4.1577,0.3555 -6.3678,1.2384 l 0.338,2.83 c 2.0827,-0.8383 3.7809,-1.2384 5.5255,-1.2384 3.1395,0 4.4591,1.9034 4.4591,4.9055 v 0.6204 c -0.9738,-0.1819 -1.9088,-0.2725 -3.3965,-0.2725 -5.2299,0 -9.1827,2.695 -9.1827,7.3801 0,4.37033 3.1008,6.80043 6.4219,6.80043 2.7164,0 4.9652,-1.4565 6.0742,-3.75153 h 0.083 l 0.1294,3.31303 h 3.4409 v -14.48993 c 0,-4.814 -2.7628,-7.3355 -7.5251,-7.3355 m 3.9548,12.6349 c 0,4.2406 -2.0827,6.8065 -5.1005,6.8065 -2.1657,0 -3.6534,-1.6384 -3.6534,-4.2406 0,-2.8308 1.7427,-4.6873 5.91,-4.6873 1.0626,0 1.9919,0.1358 2.8439,0.2649 v 1.8565"
         style="fill:#ffffff;fill-opacity:1;fill-rule:nonzero;stroke:none;stroke-width:0.19319896"
         id="path4204-8"
         inkscape:connector-curvature="0" />
      <path
         d="m 1473.7622,-1019.0287 h -4.9342 v -4.731 h -3.5704 v 4.731 h -3.267 v 2.8227 h 3.267 v 13.2982 c 0,3.88513 2.046,5.69713 5.3575,5.69713 1.7445,0 2.8921,-0.1736 3.7828,-0.5735 l -0.3864,-2.69503 c -0.7168,0.3109 -1.4857,0.446 -2.2933,0.446 -2.0827,0 -2.8902,-1.2384 -2.8902,-3.8044 v -12.3684 h 4.9342 v -2.8227"
         style="fill:#ffffff;fill-opacity:1;fill-rule:nonzero;stroke:none;stroke-width:0.19319896"
         id="path4206-12"
         inkscape:connector-curvature="0" />
      <path
         d="m 1478.9709,-997.64917 h 3.5684 v -21.37953 h -3.5684 v 21.37953 m 1.7813,-24.51893 c 1.2365,0 2.2102,-1.012 2.2102,-2.2951 0,-1.2828 -0.9737,-2.301 -2.2102,-2.301 -1.2307,0 -2.2044,1.0182 -2.2044,2.301 0,1.2831 0.9737,2.2951 2.2044,2.2951"
         style="fill:#ffffff;fill-opacity:1;fill-rule:nonzero;stroke:none;stroke-width:0.19319896"
         id="path4208-9"
         inkscape:connector-curvature="0" />
      <path
         d="m 1497.4233,-1019.4746 c -6.2036,0 -9.9034,4.8609 -9.9034,11.1323 0,6.2707 3.6998,11.13163 9.9034,11.13163 6.2017,0 9.8995,-4.86093 9.8995,-11.13163 0,-6.2714 -3.6978,-11.1323 -9.8995,-11.1323 m 0,19.4414 c -4.287,0 -6.1592,-3.8481 -6.1592,-8.3091 0,-4.4594 1.8722,-8.3023 6.1592,-8.3023 4.2929,0 6.165,3.8429 6.165,8.3023 0,4.461 -1.8721,8.3091 -6.165,8.3091"
         style="fill:#ffffff;fill-opacity:1;fill-rule:nonzero;stroke:none;stroke-width:0.19319896"
         id="path4210-3"
         inkscape:connector-curvature="0" />
      <path
         d="m 1515.9047,-1015.4966 -0.1275,-3.5321 h -3.4428 v 21.37953 h 3.5703 v -11.75043 c 0,-4.4224 2.5889,-7.0705 5.7728,-7.0705 3.3211,0 4.1287,1.947 4.1287,6.0525 v 12.76843 h 3.5703 v -13.91633 c 0,-5.2141 -2.3029,-7.9091 -6.6731,-7.9091 -3.0622,0 -5.2743,1.7674 -6.7156,3.978 h -0.083"
         style="fill:#ffffff;fill-opacity:1;fill-rule:nonzero;stroke:none;stroke-width:0.19319896"
         id="path4212-9"
         inkscape:connector-curvature="0" />
      <path
         d="m 974.53235,-1117.7645 c -1.1615,-0.03 -2.317,0.7032 -2.7704,1.7598 -0.4521,1.0551 -0.188,2.3766 0.6429,3.1841 l 25.0328,25.1159 c 0.806,0.8074 2.12,1.0798 3.18415,0.6489 1.0723,-0.4308 1.8256,-1.5245 1.8339,-2.6564 v -25.1603 c 0,-1.5186 -1.3955,-2.898 -2.93515,-2.892 z"
         style="fill:#ffffff;fill-opacity:1;fill-rule:evenodd;stroke:none;stroke-width:0.19319896"
         id="path4214-0"
         inkscape:connector-curvature="0" />
      <path
         d="m 905.70515,-1117.7645 c -1.5395,0.023 -2.9289,1.4277 -2.9289,2.9673 v 114.6131 c 0,1.54033 1.3894,2.95083 2.9289,2.97343 h 93.777 c 1.55465,0 2.97355,-1.412 2.97355,-2.97343 v -73.8073 c 0,-0.7788 -0.3171,-1.5555 -0.8679,-2.1063 l -40.56425,-40.7613 c -0.5427,-0.5659 -1.3215,-0.898 -2.1057,-0.9055 z m 2.9652,5.9408 h 49.0016 l 38.8444,39.0314 v 69.643 h -87.846 z"
         style="fill:#ffffff;fill-opacity:1;fill-rule:evenodd;stroke:none;stroke-width:0.19319896"
         id="path4216-8"
         inkscape:connector-curvature="0" />
    </g>
    <g
       transform="matrix(1.7389413,0,0,1.7389413,-864.68543,1937.6475)"
       id="g2522">
      <path
         inkscape:connector-curvature="0"
         id="path2454"
         style="fill:#ffffff;fill-opacity:1;fill-rule:nonzero;stroke:none;stroke-width:0.19319896"
         d="m 1050.2431,-1116.1345 v 70.9486 h 45.7398 v -10.7762 h -31.7791 v -60.1724 h -13.9607" />
      <path
         inkscape:connector-curvature="0"
         id="path2456"
         style="fill:#ffffff;fill-opacity:1;fill-rule:nonzero;stroke:none;stroke-width:0.19319896"
         d="m 1104.4276,-1045.1859 h 13.9625 v -51.0619 h -13.9625 v 51.0619 m 6.9823,-55.4618 c 4.3759,0 8.0216,-3.5545 8.0216,-8.0523 0,-4.3992 -3.6457,-8.0601 -8.0216,-8.0601 -4.4842,0 -8.0236,3.6609 -8.0236,8.0601 0,4.4978 3.5394,8.0523 8.0236,8.0523" />
      <path
         inkscape:connector-curvature="0"
         id="path2458"
         style="fill:#ffffff;fill-opacity:1;fill-rule:nonzero;stroke:none;stroke-width:0.19319896"
         d="m 1142.7062,-1090.2858 h -0.2048 v -30.2394 h -13.9683 v 75.3393 h 13.6514 l 0.3169,-5.9621 h 0.2048 c 4.3778,4.9131 8.7538,7.011 15.9466,7.011 13.5471,0 22.5038,-12.2484 22.5038,-27.5225 0,-14.7548 -8.0216,-25.6381 -21.8778,-25.6381 -7.4034,0 -11.7813,2.1968 -16.5726,7.0118 m -0.2048,18.4136 c 0,-8.7846 3.9547,-14.6484 11.4644,-14.6484 8.3327,0 12.498,5.9619 12.498,15.6974 0,9.6312 -4.061,15.9018 -12.2932,15.9018 -7.1928,0 -11.6692,-5.645 -11.6692,-14.6475 v -2.3033" />
      <path
         inkscape:connector-curvature="0"
         id="path2460"
         style="fill:#ffffff;fill-opacity:1;fill-rule:nonzero;stroke:none;stroke-width:0.19319896"
         d="m 1218.6276,-1097.2976 c -6.6635,0.4159 -13.0255,4.498 -15.939,10.1512 h -0.2125 l -0.3091,-9.1014 h -13.6514 v 51.0619 h 13.9605 v -19.252 c 0,-10.257 1.8799,-13.9164 5.1101,-16.2189 2.8072,-1.9923 6.1438,-2.8286 10.7322,-3.0413 l 0.3092,-13.5995" />
      <path
         inkscape:connector-curvature="0"
         id="path2462"
         style="fill:#ffffff;fill-opacity:1;fill-rule:nonzero;stroke:none;stroke-width:0.19319896"
         d="m 1270.0069,-1073.7499 c 0,-12.6644 -7.7144,-23.5477 -21.049,-23.5477 -16.053,0 -26.3678,11.0939 -26.3678,27.9393 0,16.4294 10.6336,25.2213 26.3678,25.2213 7.3956,0 12.61,-1.1545 17.5096,-3.3514 l -1.4645,-10.4675 c -4.5807,1.8875 -9.2754,3.0345 -14.2716,3.0345 -8.4447,0 -13.8639,-3.8715 -14.3836,-11.8176 h 33.0312 c 0.4231,-1.8873 0.6279,-4.8164 0.6279,-7.0109 m -22.5058,-12.7707 c 6.0452,0 8.8524,4.9204 9.0649,10.1505 h -19.6985 c 1.0413,-5.8557 5.1101,-10.1505 10.6336,-10.1505" />
      <path
         inkscape:connector-curvature="0"
         id="path2464"
         style="fill:#ffffff;fill-opacity:1;fill-rule:nonzero;stroke:none;stroke-width:0.19319896"
         d="m 1312.3967,-1117.1751 c -18.7538,0 -34.1789,13.705 -34.1789,36.5183 0,22.8073 15.4251,36.5198 34.1789,36.5198 18.7615,0 34.1865,-13.7125 34.1865,-36.5198 0,-22.8133 -15.425,-36.5183 -34.1865,-36.5183 m 0,7.109 c 13.9683,0 24.5942,10.4675 24.5942,29.4093 0,18.935 -10.6259,29.4026 -24.5942,29.4026 -13.9625,0 -24.5885,-10.4676 -24.5885,-29.4026 0,-18.9418 10.626,-29.4093 24.5885,-29.4093" />
      <path
         inkscape:connector-curvature="0"
         id="path2466"
         style="fill:#ffffff;fill-opacity:1;fill-rule:nonzero;stroke:none;stroke-width:0.19319896"
         d="m 1359.9275,-1099.0785 v 3.2457 h -8.2342 v 6.6942 h 8.2342 v 43.9527 h 8.7538 v -43.9527 h 12.9192 v -6.6942 h -12.9192 v -4.6043 c 0,-9.1014 3.8563,-14.4354 10.8366,-14.4354 3.2302,0 5.3129,0.5199 7.299,1.2519 l 0.8288,-6.4896 c -1.8778,-0.732 -5.4192,-1.4648 -8.2341,-1.4648 -12.3976,0 -19.4841,8.0608 -19.4841,22.4965" />
      <path
         inkscape:connector-curvature="0"
         id="path2468"
         style="fill:#ffffff;fill-opacity:1;fill-rule:nonzero;stroke:none;stroke-width:0.19319896"
         d="m 1389.0271,-1099.0785 v 3.2457 h -8.2341 v 6.6942 h 8.2341 v 43.9527 h 8.7539 v -43.9527 h 12.9211 v -6.6942 h -12.9211 v -4.6043 c 0,-9.1014 3.8562,-14.4354 10.8384,-14.4354 3.2303,0 5.313,0.5199 7.2972,1.2519 l 0.8307,-6.4896 c -1.8721,-0.732 -5.4192,-1.4648 -8.2341,-1.4648 -12.3995,0 -19.4861,8.0608 -19.4861,22.4965" />
      <path
         inkscape:connector-curvature="0"
         id="path2470"
         style="fill:#ffffff;fill-opacity:1;fill-rule:nonzero;stroke:none;stroke-width:0.19319896"
         d="m 1420.8451,-1045.1859 h 8.7538 v -50.6469 h -8.7538 v 50.6469 m 4.3759,-58.0736 c 3.0197,0 5.4192,-2.4067 5.4192,-5.4405 0,-3.0331 -2.3995,-5.4421 -5.4192,-5.4421 -3.0255,0 -5.4173,2.409 -5.4173,5.4421 0,3.0338 2.3918,5.4405 5.4173,5.4405" />
      <path
         inkscape:connector-curvature="0"
         id="path2472"
         style="fill:#ffffff;fill-opacity:1;fill-rule:nonzero;stroke:none;stroke-width:0.19319896"
         d="m 1447.7944,-1070.7169 c 0,-12.7685 7.6081,-19.4633 17.5077,-19.4633 5.2164,0 9.7971,1.2522 13.5471,3.0338 l 0.8385,-6.6947 c -3.1318,-1.5682 -8.1279,-3.0406 -13.6534,-3.0406 -15.6279,0 -27.4091,9.5247 -27.4091,27.3128 0,16.7463 10.6336,25.4319 24.7005,25.4319 6.248,0 10.7321,-0.732 15.8403,-2.9364 l -0.8365,-6.694 c -4.3779,1.9855 -9.0649,2.9289 -13.4409,2.9289 -10.1062,0 -17.0942,-6.3854 -17.0942,-19.8784" />
      <path
         inkscape:connector-curvature="0"
         id="path2474"
         style="fill:#ffffff;fill-opacity:1;fill-rule:nonzero;stroke:none;stroke-width:0.19319896"
         d="m 1529.0577,-1068.5201 c 0.2125,-1.8873 0.3188,-3.4563 0.3188,-5.0268 0,-12.9737 -6.7774,-23.3348 -19.8029,-23.3348 -14.0687,0 -24.3856,11.7195 -24.3856,27.3128 0,17.1614 10.3169,25.4319 24.3856,25.4319 6.2558,0 10.9428,-0.9424 15.8404,-2.9364 l -0.8385,-6.694 c -3.8562,1.8874 -9.3721,2.9289 -13.7499,2.9289 -10.1121,0 -16.6789,-6.1725 -16.8818,-17.6816 h 35.1139 m -20.2163,-21.6601 c 7.7125,0 11.8779,6.3855 11.8779,14.7548 h -26.3601 c 1.2519,-8.8983 6.1495,-14.7548 14.4822,-14.7548" />
      <path
         inkscape:connector-curvature="0"
         id="path2476"
         style="fill:#ffffff;fill-opacity:1;fill-rule:nonzero;stroke:none;stroke-width:0.19319896"
         d="m 1071.147,-1027.6026 h -20.9039 v 3.0044 h 8.6244 v 26.94903 h 3.5629 v -26.94903 h 8.7166 v -3.0044" />
      <path
         inkscape:connector-curvature="0"
         id="path2478"
         style="fill:#ffffff;fill-opacity:1;fill-rule:nonzero;stroke:none;stroke-width:0.19319896"
         d="m 1078.0289,-1015.4966 v -13.9625 h -3.5682 v 31.80993 h 3.5682 v -11.75043 c 0,-4.4224 2.5968,-7.0705 5.7825,-7.0705 3.3114,0 4.119,1.947 4.119,6.0525 v 12.76843 h 3.5703 v -13.91633 c 0,-5.2141 -2.2935,-7.9091 -6.6714,-7.9091 -3.0564,0 -5.2683,1.7674 -6.7098,3.978 h -0.091" />
      <path
         inkscape:connector-curvature="0"
         id="path2480"
         style="fill:#ffffff;fill-opacity:1;fill-rule:nonzero;stroke:none;stroke-width:0.19319896"
         d="m 1114.1861,-1007.5038 c 0.083,-0.7924 0.1295,-1.4573 0.1295,-2.1139 0,-5.479 -2.7628,-9.8569 -8.0758,-9.8569 -5.736,0 -9.94,4.9515 -9.94,11.5316 0,7.2449 4.204,10.73233 9.94,10.73233 2.5503,0 4.461,-0.3917 6.4606,-1.2384 l -0.34,-2.82253 c -1.5707,0.7924 -3.8273,1.2384 -5.6066,1.2384 -4.1287,0 -6.8006,-2.612 -6.8914,-7.4706 h 14.3237 m -8.2399,-9.1408 c 3.1395,0 4.8435,2.695 4.8435,6.227 h -10.7535 c 0.5139,-3.7501 2.5058,-6.227 5.91,-6.227" />
      <path
         inkscape:connector-curvature="0"
         id="path2482"
         style="fill:#ffffff;fill-opacity:1;fill-rule:nonzero;stroke:none;stroke-width:0.19319896"
         d="m 1128.9852,-1027.2025 v 29.29073 c 2.0826,0.3094 5.1468,0.483 7.442,0.483 8.7094,0 16.9126,-5.26093 16.9126,-16.12083 0,-9.5474 -6.2944,-14.271 -16.8295,-14.271 -2.3397,0 -5.0561,0.1735 -7.5251,0.6181 m 3.5703,2.6505 c 1.3215,-0.2205 2.7627,-0.2651 4.3392,-0.2651 8.1125,0 12.5348,4.5056 12.5348,11.7045 0,8.5294 -5.6975,12.6794 -12.5792,12.6794 -1.3138,0 -2.8014,-0.046 -4.2948,-0.1736 v -23.9452" />
      <path
         inkscape:connector-curvature="0"
         id="path2484"
         style="fill:#ffffff;fill-opacity:1;fill-rule:nonzero;stroke:none;stroke-width:0.19319896"
         d="m 1166.6145,-1019.4746 c -6.2036,0 -9.9014,4.8609 -9.9014,11.1323 0,6.2707 3.6978,11.13163 9.9014,11.13163 6.2037,0 9.9015,-4.86093 9.9015,-11.13163 0,-6.2714 -3.6978,-11.1323 -9.9015,-11.1323 m 0,19.4414 c -4.2871,0 -6.1592,-3.8481 -6.1592,-8.3091 0,-4.4594 1.8721,-8.3023 6.1592,-8.3023 4.2948,0 6.165,3.8429 6.165,8.3023 0,4.461 -1.8702,8.3091 -6.165,8.3091" />
      <path
         inkscape:connector-curvature="0"
         id="path2486"
         style="fill:#ffffff;fill-opacity:1;fill-rule:nonzero;stroke:none;stroke-width:0.19319896"
         d="m 1183.7764,-1008.426 c 0,-5.396 3.1008,-8.2186 7.1387,-8.2186 2.1213,0 3.9915,0.5298 5.5235,1.2831 l 0.3401,-2.8287 c -1.2751,-0.664 -3.3134,-1.2844 -5.5699,-1.2844 -6.3679,0 -11.1689,4.0224 -11.1689,11.5316 0,7.0638 4.3315,10.73233 10.0676,10.73233 2.5502,0 4.3779,-0.3087 6.4606,-1.2384 l -0.34,-2.82253 c -1.789,0.8384 -3.6979,1.2384 -5.4869,1.2384 -4.1209,0 -6.9648,-2.695 -6.9648,-8.3928" />
      <path
         inkscape:connector-curvature="0"
         id="path2488"
         style="fill:#ffffff;fill-opacity:1;fill-rule:nonzero;stroke:none;stroke-width:0.19319896"
         d="m 1214.5375,-1001.1886 0.1198,3.53943 h 3.4486 v -21.37953 h -3.5684 v 11.7505 c 0,4.4149 -2.5966,7.0631 -5.7824,7.0631 -3.3114,0 -4.119,-1.9395 -4.119,-6.0525 v -12.7611 h -3.5703 v 13.9165 c 0,5.20653 2.2932,7.90153 6.6711,7.90153 3.0564,0 5.2686,-1.766 6.7098,-3.97793 h 0.091" />
      <path
         inkscape:connector-curvature="0"
         id="path2490"
         style="fill:#ffffff;fill-opacity:1;fill-rule:nonzero;stroke:none;stroke-width:0.19319896"
         d="m 1249.6669,-1010.8561 v 13.20693 h 3.5703 v -14.36013 c 0,-4.7703 -2.129,-7.4653 -6.2036,-7.4653 -2.9366,0 -5.2685,1.9471 -6.6267,4.8163 h -0.1275 c -0.8076,-3.0042 -2.5136,-4.8163 -5.7806,-4.8163 -2.9366,0 -4.8009,1.6384 -6.2499,3.978 h -0.083 l -0.1275,-3.5321 h -3.4409 v 21.37953 h 3.5684 v -10.86743 c 0,-4.8141 2.0382,-7.9535 5.2299,-7.9535 2.6719,0 3.7364,1.947 3.7364,5.614 v 13.20693 h 3.5703 v -10.86743 c 0,-4.9054 2.0364,-7.9535 5.2299,-7.9535 2.6701,0 3.7346,1.947 3.7346,5.614" />
      <path
         inkscape:connector-curvature="0"
         id="path2492"
         style="fill:#ffffff;fill-opacity:1;fill-rule:nonzero;stroke:none;stroke-width:0.19319896"
         d="m 1275.855,-1007.5038 c 0.083,-0.7924 0.1275,-1.4573 0.1275,-2.1139 0,-5.479 -2.7608,-9.8569 -8.0738,-9.8569 -5.736,0 -9.94,4.9515 -9.94,11.5316 0,7.2449 4.204,10.73233 9.94,10.73233 2.5503,0 4.4591,-0.3917 6.4587,-1.2384 l -0.3381,-2.82253 c -1.5707,0.7924 -3.8273,1.2384 -5.6086,1.2384 -4.1209,0 -6.7986,-2.612 -6.8817,-7.4706 h 14.316 m -8.2419,-9.1408 c 3.1473,0 4.8455,2.695 4.8455,6.227 h -10.7535 c 0.512,-3.7501 2.5058,-6.227 5.908,-6.227" />
      <path
         inkscape:connector-curvature="0"
         id="path2494"
         style="fill:#ffffff;fill-opacity:1;fill-rule:nonzero;stroke:none;stroke-width:0.19319896"
         d="m 1284.6011,-1015.4966 -0.1275,-3.5321 h -3.4408 v 21.37953 h 3.5683 v -11.75043 c 0,-4.4224 2.5889,-7.0705 5.7806,-7.0705 3.3133,0 4.1209,1.947 4.1209,6.0525 v 12.76843 h 3.5703 v -13.91633 c 0,-5.2141 -2.2952,-7.9091 -6.6711,-7.9091 -3.0642,0 -5.2686,1.7674 -6.7176,3.978 h -0.083" />
      <path
         inkscape:connector-curvature="0"
         id="path2496"
         style="fill:#ffffff;fill-opacity:1;fill-rule:nonzero;stroke:none;stroke-width:0.19319896"
         d="m 1313.9964,-1019.0287 h -4.9285 v -4.731 h -3.5684 v 4.731 h -3.269 v 2.8227 h 3.269 v 13.2982 c 0,3.88513 2.0363,5.69713 5.3574,5.69713 1.7368,0 2.8902,-0.1736 3.7809,-0.5735 l -0.3845,-2.69503 c -0.7245,0.3109 -1.4876,0.446 -2.2952,0.446 -2.0827,0 -2.8902,-1.2384 -2.8902,-3.8044 v -12.3684 h 4.9285 v -2.8227" />
      <path
         inkscape:connector-curvature="0"
         id="path2498"
         style="fill:#ffffff;fill-opacity:1;fill-rule:nonzero;stroke:none;stroke-width:0.19319896"
         d="m 1332.4024,-997.64917 v -13.51633 h 10.3246 v -3.0022 h -10.3246 v -10.4305 h 11.7736 v -3.0044 h -15.3419 v 29.95343 h 3.5683" />
      <path
         inkscape:connector-curvature="0"
         id="path2500"
         style="fill:#ffffff;fill-opacity:1;fill-rule:nonzero;stroke:none;stroke-width:0.19319896"
         d="m 1357.0817,-1019.4746 c -6.2036,0 -9.8938,4.8609 -9.8938,11.1323 0,6.2707 3.6902,11.13163 9.8938,11.13163 6.2036,0 9.9014,-4.86093 9.9014,-11.13163 0,-6.2714 -3.6978,-11.1323 -9.9014,-11.1323 m 0,19.4414 c -4.2871,0 -6.1592,-3.8481 -6.1592,-8.3091 0,-4.4594 1.8721,-8.3023 6.1592,-8.3023 4.2948,0 6.1649,3.8429 6.1649,8.3023 0,4.461 -1.8701,8.3091 -6.1649,8.3091" />
      <path
         inkscape:connector-curvature="0"
         id="path2502"
         style="fill:#ffffff;fill-opacity:1;fill-rule:nonzero;stroke:none;stroke-width:0.19319896"
         d="m 1385.2462,-1001.1886 0.1275,3.53943 h 3.4428 v -21.37953 h -3.5703 v 11.7505 c 0,4.4149 -2.5889,7.0631 -5.7728,7.0631 -3.3133,0 -4.1209,-1.9395 -4.1209,-6.0525 v -12.7611 h -3.5703 v 13.9165 c 0,5.20653 2.2952,7.90153 6.6711,7.90153 3.0564,0 5.2686,-1.766 6.7098,-3.97793 h 0.083" />
      <path
         inkscape:connector-curvature="0"
         id="path2504"
         style="fill:#ffffff;fill-opacity:1;fill-rule:nonzero;stroke:none;stroke-width:0.19319896"
         d="m 1398.8841,-1015.4966 -0.1294,-3.5321 h -3.4409 v 21.37953 h 3.5703 v -11.75043 c 0,-4.4224 2.587,-7.0705 5.7805,-7.0705 3.3134,0 4.121,1.947 4.121,6.0525 v 12.76843 h 3.5684 v -13.91633 c 0,-5.2141 -2.2933,-7.9091 -6.6712,-7.9091 -3.0641,0 -5.2666,1.7674 -6.7156,3.978 h -0.083" />
      <path
         inkscape:connector-curvature="0"
         id="path2506"
         style="fill:#ffffff;fill-opacity:1;fill-rule:nonzero;stroke:none;stroke-width:0.19319896"
         d="m 1433.0398,-1015.7147 c -1.5321,-2.6128 -3.7423,-3.7599 -6.6325,-3.7599 -5.5255,0 -9.2601,4.7695 -9.2601,11.5316 0,6.4533 3.3578,10.73233 9.0108,10.73233 2.9734,0 5.2666,-1.412 6.8818,-3.75153 h 0.083 l 0.1294,3.31303 h 3.4409 v -31.80993 h -3.5703 v 13.7444 h -0.083 m 0.083,8.6546 c 0,3.7138 -2.2102,7.0269 -5.8636,7.0269 -4.121,0 -6.3698,-3.3576 -6.3698,-8.263 0,-5.0345 2.1658,-8.3484 6.2867,-8.3484 3.2689,0 5.9467,2.9139 5.9467,7.0269 v 2.5576" />
      <path
         inkscape:connector-curvature="0"
         id="path2508"
         style="fill:#ffffff;fill-opacity:1;fill-rule:nonzero;stroke:none;stroke-width:0.19319896"
         d="m 1450.3369,-1019.4746 c -2.0827,0 -4.1577,0.3555 -6.3678,1.2384 l 0.338,2.83 c 2.0827,-0.8383 3.7809,-1.2384 5.5255,-1.2384 3.1395,0 4.4591,1.9034 4.4591,4.9055 v 0.6204 c -0.9738,-0.1819 -1.9088,-0.2725 -3.3965,-0.2725 -5.2299,0 -9.1827,2.695 -9.1827,7.3801 0,4.37033 3.1008,6.80043 6.4219,6.80043 2.7164,0 4.9652,-1.4565 6.0742,-3.75153 h 0.083 l 0.1294,3.31303 h 3.4409 v -14.48993 c 0,-4.814 -2.7628,-7.3355 -7.5251,-7.3355 m 3.9548,12.6349 c 0,4.2406 -2.0827,6.8065 -5.1005,6.8065 -2.1657,0 -3.6534,-1.6384 -3.6534,-4.2406 0,-2.8308 1.7427,-4.6873 5.91,-4.6873 1.0626,0 1.9919,0.1358 2.8439,0.2649 v 1.8565" />
      <path
         inkscape:connector-curvature="0"
         id="path2510"
         style="fill:#ffffff;fill-opacity:1;fill-rule:nonzero;stroke:none;stroke-width:0.19319896"
         d="m 1473.7622,-1019.0287 h -4.9342 v -4.731 h -3.5704 v 4.731 h -3.267 v 2.8227 h 3.267 v 13.2982 c 0,3.88513 2.046,5.69713 5.3575,5.69713 1.7445,0 2.8921,-0.1736 3.7828,-0.5735 l -0.3864,-2.69503 c -0.7168,0.3109 -1.4857,0.446 -2.2933,0.446 -2.0827,0 -2.8902,-1.2384 -2.8902,-3.8044 v -12.3684 h 4.9342 v -2.8227" />
      <path
         inkscape:connector-curvature="0"
         id="path2512"
         style="fill:#ffffff;fill-opacity:1;fill-rule:nonzero;stroke:none;stroke-width:0.19319896"
         d="m 1478.9709,-997.64917 h 3.5684 v -21.37953 h -3.5684 v 21.37953 m 1.7813,-24.51893 c 1.2365,0 2.2102,-1.012 2.2102,-2.2951 0,-1.2828 -0.9737,-2.301 -2.2102,-2.301 -1.2307,0 -2.2044,1.0182 -2.2044,2.301 0,1.2831 0.9737,2.2951 2.2044,2.2951" />
      <path
         inkscape:connector-curvature="0"
         id="path2514"
         style="fill:#ffffff;fill-opacity:1;fill-rule:nonzero;stroke:none;stroke-width:0.19319896"
         d="m 1497.4233,-1019.4746 c -6.2036,0 -9.9034,4.8609 -9.9034,11.1323 0,6.2707 3.6998,11.13163 9.9034,11.13163 6.2017,0 9.8995,-4.86093 9.8995,-11.13163 0,-6.2714 -3.6978,-11.1323 -9.8995,-11.1323 m 0,19.4414 c -4.287,0 -6.1592,-3.8481 -6.1592,-8.3091 0,-4.4594 1.8722,-8.3023 6.1592,-8.3023 4.2929,0 6.165,3.8429 6.165,8.3023 0,4.461 -1.8721,8.3091 -6.165,8.3091" />
      <path
         inkscape:connector-curvature="0"
         id="path2516"
         style="fill:#ffffff;fill-opacity:1;fill-rule:nonzero;stroke:none;stroke-width:0.19319896"
         d="m 1515.9047,-1015.4966 -0.1275,-3.5321 h -3.4428 v 21.37953 h 3.5703 v -11.75043 c 0,-4.4224 2.5889,-7.0705 5.7728,-7.0705 3.3211,0 4.1287,1.947 4.1287,6.0525 v 12.76843 h 3.5703 v -13.91633 c 0,-5.2141 -2.3029,-7.9091 -6.6731,-7.9091 -3.0622,0 -5.2743,1.7674 -6.7156,3.978 h -0.083" />
      <path
         inkscape:connector-curvature="0"
         id="path2518"
         style="fill:#ffffff;fill-opacity:1;fill-rule:evenodd;stroke:none;stroke-width:0.19319896"
         d="m 974.53235,-1117.7645 c -1.1615,-0.03 -2.317,0.7032 -2.7704,1.7598 -0.4521,1.0551 -0.188,2.3766 0.6429,3.1841 l 25.0328,25.1159 c 0.806,0.8074 2.12,1.0798 3.18415,0.6489 1.0723,-0.4308 1.8256,-1.5245 1.8339,-2.6564 v -25.1603 c 0,-1.5186 -1.3955,-2.898 -2.93515,-2.892 z" />
      <path
         inkscape:connector-curvature="0"
         id="path2520"
         style="fill:#ffffff;fill-opacity:1;fill-rule:evenodd;stroke:none;stroke-width:0.19319896"
         d="m 905.70515,-1117.7645 c -1.5395,0.023 -2.9289,1.4277 -2.9289,2.9673 v 114.6131 c 0,1.54033 1.3894,2.95083 2.9289,2.97343 h 93.777 c 1.55465,0 2.97355,-1.412 2.97355,-2.97343 v -73.8073 c 0,-0.7788 -0.3171,-1.5555 -0.8679,-2.1063 l -40.56425,-40.7613 c -0.5427,-0.5659 -1.3215,-0.898 -2.1057,-0.9055 z m 2.9652,5.9408 h 49.0016 l 38.8444,39.0314 v 69.643 h -87.846 z" />
    </g>
  </g>
</svg>
