<?xml version="1.0" encoding="UTF-8" standalone="no"?>
<!-- Created with Inkscape (http://www.inkscape.org/) -->

<svg
   xmlns:dc="http://purl.org/dc/elements/1.1/"
   xmlns:cc="http://creativecommons.org/ns#"
   xmlns:rdf="http://www.w3.org/1999/02/22-rdf-syntax-ns#"
   xmlns:svg="http://www.w3.org/2000/svg"
   xmlns="http://www.w3.org/2000/svg"
   xmlns:sodipodi="http://sodipodi.sourceforge.net/DTD/sodipodi-0.dtd"
   xmlns:inkscape="http://www.inkscape.org/namespaces/inkscape"
   width="1720.6877"
   height="484.12134"
   viewBox="0 0 455.26532 128.09043"
   version="1.1"
   id="svg8"
   inkscape:version="0.92.2 (5c3e80d, 2017-08-06)"
   sodipodi:docname="Sticker-horizontal.svg"
   inkscape:export-filename="/home/anxhelo/Desktop/Sticker-horizontal.png"
   inkscape:export-xdpi="96.010788"
   inkscape:export-ydpi="96.010788">
  <defs
     id="defs2" />
  <sodipodi:namedview
     id="base"
     pagecolor="#ffffff"
     bordercolor="#666666"
     borderopacity="1.0"
     inkscape:pageopacity="0.0"
     inkscape:pageshadow="2"
     inkscape:zoom="0.12640625"
     inkscape:cx="-508.55926"
     inkscape:cy="531.71105"
     inkscape:document-units="mm"
     inkscape:current-layer="g1528"
     inkscape:document-rotation="0"
     showgrid="false"
     borderlayer="true"
     inkscape:showpageshadow="false"
     units="px"
     inkscape:pagecheckerboard="false"
     showguides="true"
     inkscape:window-width="1366"
     inkscape:window-height="713"
     inkscape:window-x="0"
     inkscape:window-y="0"
     inkscape:window-maximized="1"
     fit-margin-top="0"
     fit-margin-left="0"
     fit-margin-right="0"
     fit-margin-bottom="0">
    <inkscape:grid
       type="xygrid"
       id="grid10"
       originx="-26.641057"
       originy="110.32973" />
  </sodipodi:namedview>
  <metadata
     id="metadata5">
    <rdf:RDF>
      <cc:Work
         rdf:about="">
        <dc:format>image/svg+xml</dc:format>
        <dc:type
           rdf:resource="http://purl.org/dc/dcmitype/StillImage" />
        <dc:title></dc:title>
      </cc:Work>
    </rdf:RDF>
  </metadata>
  <g
     inkscape:label="Layer 1"
     inkscape:groupmode="layer"
     id="layer1"
     transform="translate(-26.641056,-279.2393)">
    <g
       id="g1528"
       transform="translate(19.385546,43.753082)"
       inkscape:export-xdpi="96.010002"
       inkscape:export-ydpi="96.010002">
      <g
         id="g1009">
        <rect
           inkscape:export-ydpi="96.010002"
           inkscape:export-xdpi="96.010002"
           style="opacity:1;fill:#51b749;fill-opacity:1;fill-rule:nonzero;stroke:none;stroke-width:0.61432403;stroke-linecap:square;stroke-linejoin:round;stroke-miterlimit:4;stroke-dasharray:none;stroke-opacity:1;paint-order:markers fill stroke"
           id="rect1197"
           width="455.26529"
           height="128.09044"
           x="7.2555099"
           y="235.48622" />
        <g
           inkscape:export-ydpi="96.010002"
           inkscape:export-xdpi="96.010002"
           transform="translate(-2.7838712,186.4874)"
           id="g1313">
          <g
             id="g1271"
             transform="translate(-10.583333,-13.081989)">
            <g
               id="g1267"
               transform="matrix(0.0810453,0,0,-0.0810453,47.366839,153.0182)">
              <path
                 d="M 767.27,625.512 V 258.281 h 236.75 v 55.778 H 839.531 V 625.512 H 767.27"
                 style="fill:#ffffff;fill-opacity:1;fill-rule:nonzero;stroke:none"
                 id="path1199"
                 inkscape:connector-curvature="0" />
              <path
                 d="M 1047.73,258.281 H 1120 v 264.297 h -72.27 V 258.281 m 36.14,287.071 c 22.65,0 41.52,18.398 41.52,41.679 0,22.77 -18.87,41.719 -41.52,41.719 -23.21,0 -41.53,-18.949 -41.53,-41.719 0,-23.281 18.32,-41.679 41.53,-41.679"
                 style="fill:#ffffff;fill-opacity:1;fill-rule:nonzero;stroke:none"
                 id="path1201"
                 inkscape:connector-curvature="0" />
              <path
                 d="m 1245.86,491.719 h -1.06 v 156.519 h -72.3 V 258.281 h 70.66 l 1.64,30.86 h 1.06 c 22.66,-25.43 45.31,-36.289 82.54,-36.289 70.12,0 116.48,63.398 116.48,142.457 0,76.371 -41.52,132.703 -113.24,132.703 -38.32,0 -60.98,-11.371 -85.78,-36.293 m -1.06,-95.309 c 0,45.469 20.47,75.82 59.34,75.82 43.13,0 64.69,-30.859 64.69,-81.25 0,-49.851 -21.02,-82.308 -63.63,-82.308 -37.23,0 -60.4,29.219 -60.4,75.816 v 11.922"
                 style="fill:#ffffff;fill-opacity:1;fill-rule:nonzero;stroke:none"
                 id="path1203"
                 inkscape:connector-curvature="0" />
              <path
                 d="m 1638.83,528.012 c -34.49,-2.153 -67.42,-23.282 -82.5,-52.543 h -1.1 l -1.6,47.109 h -70.66 V 258.281 h 72.26 v 99.649 c 0,53.09 9.73,72.031 26.45,83.949 14.53,10.312 31.8,14.641 55.55,15.742 l 1.6,70.391"
                 style="fill:#ffffff;fill-opacity:1;fill-rule:nonzero;stroke:none"
                 id="path1205"
                 inkscape:connector-curvature="0" />
              <path
                 d="m 1904.77,406.129 c 0,65.551 -39.93,121.883 -108.95,121.883 -83.09,0 -136.48,-57.422 -136.48,-144.614 0,-85.039 55.04,-130.546 136.48,-130.546 38.28,0 65.27,5.976 90.63,17.347 l -7.58,54.18 c -23.71,-9.77 -48.01,-15.707 -73.87,-15.707 -43.71,0 -71.76,20.039 -74.45,61.168 h 170.97 c 2.19,9.769 3.25,24.93 3.25,36.289 m -116.49,66.101 c 31.29,0 45.82,-25.468 46.92,-52.539 h -101.96 c 5.39,30.309 26.45,52.539 55.04,52.539"
                 style="fill:#ffffff;fill-opacity:1;fill-rule:nonzero;stroke:none"
                 id="path1207"
                 inkscape:connector-curvature="0" />
              <path
                 d="m 2124.18,630.898 c -97.07,0 -176.91,-70.937 -176.91,-189.019 0,-118.051 79.84,-189.027 176.91,-189.027 97.11,0 176.95,70.976 176.95,189.027 0,118.082 -79.84,189.019 -176.95,189.019 m 0,-36.796 c 72.3,0 127.3,-54.18 127.3,-152.223 0,-98.008 -55,-152.188 -127.3,-152.188 -72.27,0 -127.27,54.18 -127.27,152.188 0,98.043 55,152.223 127.27,152.223"
                 style="fill:#ffffff;fill-opacity:1;fill-rule:nonzero;stroke:none"
                 id="path1209"
                 inkscape:connector-curvature="0" />
              <path
                 d="m 2370.2,537.23 v -16.8 h -42.62 v -34.649 h 42.62 v -227.5 h 45.31 v 227.5 h 66.87 v 34.649 h -66.87 v 23.832 c 0,47.109 19.96,74.718 56.09,74.718 16.72,0 27.5,-2.691 37.78,-6.48 l 4.29,33.59 c -9.72,3.789 -28.05,7.582 -42.62,7.582 -64.17,0 -100.85,-41.723 -100.85,-116.442"
                 style="fill:#ffffff;fill-opacity:1;fill-rule:nonzero;stroke:none"
                 id="path1211"
                 inkscape:connector-curvature="0" />
              <path
                 d="m 2520.82,537.23 v -16.8 h -42.62 v -34.649 h 42.62 v -227.5 h 45.31 v 227.5 h 66.88 v 34.649 h -66.88 v 23.832 c 0,47.109 19.96,74.718 56.1,74.718 16.72,0 27.5,-2.691 37.77,-6.48 l 4.3,33.59 c -9.69,3.789 -28.05,7.582 -42.62,7.582 -64.18,0 -100.86,-41.723 -100.86,-116.442"
                 style="fill:#ffffff;fill-opacity:1;fill-rule:nonzero;stroke:none"
                 id="path1213"
                 inkscape:connector-curvature="0" />
              <path
                 d="m 2685.51,258.281 h 45.31 V 520.43 h -45.31 V 258.281 m 22.65,300.59 c 15.63,0 28.05,12.457 28.05,28.16 0,15.699 -12.42,28.168 -28.05,28.168 -15.66,0 -28.04,-12.469 -28.04,-28.168 0,-15.703 12.38,-28.16 28.04,-28.16"
                 style="fill:#ffffff;fill-opacity:1;fill-rule:nonzero;stroke:none"
                 id="path1215"
                 inkscape:connector-curvature="0" />
              <path
                 d="m 2825,390.43 c 0,66.09 39.38,100.742 90.62,100.742 27,0 50.71,-6.481 70.12,-15.703 l 4.34,34.652 c -16.21,8.117 -42.07,15.738 -70.67,15.738 -80.89,0 -141.87,-49.3 -141.87,-141.371 0,-86.679 55.04,-131.636 127.85,-131.636 32.34,0 55.55,3.789 81.99,15.199 l -4.33,34.648 c -22.66,-10.277 -46.92,-15.16 -69.57,-15.16 -52.31,0 -88.48,33.051 -88.48,102.891"
                 style="fill:#ffffff;fill-opacity:1;fill-rule:nonzero;stroke:none"
                 id="path1217"
                 inkscape:connector-curvature="0" />
              <path
                 d="m 3245.62,379.059 c 1.1,9.769 1.65,17.89 1.65,26.019 0,67.152 -35.08,120.781 -102.5,120.781 -72.82,0 -126.22,-60.66 -126.22,-141.371 0,-88.828 53.4,-131.636 126.22,-131.636 32.38,0 56.64,4.878 81.99,15.199 l -4.34,34.648 c -19.96,-9.769 -48.51,-15.16 -71.17,-15.16 -52.34,0 -86.33,31.949 -87.38,91.52 h 181.75 m -104.64,112.113 c 39.92,0 61.48,-33.051 61.48,-76.371 h -136.44 c 6.48,46.058 31.83,76.371 74.96,76.371"
                 style="fill:#ffffff;fill-opacity:1;fill-rule:nonzero;stroke:none"
                 id="path1219"
                 inkscape:connector-curvature="0" />
              <path
                 d="M 875.469,167.27 H 767.27 v -15.551 h 44.64 V 12.2305 h 18.442 V 151.719 h 45.117 v 15.551"
                 style="fill:#ffffff;fill-opacity:1;fill-rule:nonzero;stroke:none"
                 id="path1221"
                 inkscape:connector-curvature="0" />
              <path
                 d="m 911.09,104.609 v 72.27 H 892.621 V 12.2305 h 18.469 v 60.8203 c 0,22.8906 13.441,36.5972 29.93,36.5972 17.14,0 21.32,-10.0777 21.32,-31.3277 V 12.2305 h 18.48 v 72.0312 c 0,26.9883 -11.871,40.9373 -34.531,40.9373 -15.82,0 -27.269,-9.148 -34.73,-20.59 h -0.469"
                 style="fill:#ffffff;fill-opacity:1;fill-rule:nonzero;stroke:none"
                 id="path1223"
                 inkscape:connector-curvature="0" />
              <path
                 d="m 1098.24,63.2383 c 0.43,4.1015 0.67,7.543 0.67,10.9414 0,28.3593 -14.3,51.0193 -41.8,51.0193 -29.69,0 -51.45,-25.6287 -51.45,-59.6873 0,-37.5 21.76,-55.55076 51.45,-55.55076 13.2,0 23.09,2.02736 33.44,6.41016 l -1.76,14.6094 c -8.13,-4.1016 -19.81,-6.4102 -29.02,-6.4102 -21.37,0 -35.2,13.5195 -35.67,38.668 h 74.14 m -42.65,47.3127 c 16.25,0 25.07,-13.9494 25.07,-32.2307 H 1025 c 2.66,19.4102 12.97,32.2307 30.59,32.2307"
                 style="fill:#ffffff;fill-opacity:1;fill-rule:nonzero;stroke:none"
                 id="path1225"
                 inkscape:connector-curvature="0" />
              <path
                 d="M 1174.84,165.199 V 13.5898 c 10.78,-1.6015 26.64,-2.5 38.52,-2.5 45.08,0 87.54,27.2305 87.54,83.4415 0,49.4177 -32.58,73.8667 -87.11,73.8667 -12.11,0 -26.17,-0.898 -38.95,-3.199 m 18.48,-13.719 c 6.84,1.141 14.3,1.372 22.46,1.372 41.99,0 64.88,-23.321 64.88,-60.5825 0,-44.1484 -29.49,-65.6289 -65.11,-65.6289 -6.8,0 -14.5,0.2383 -22.23,0.8985 V 151.48"
                 style="fill:#ffffff;fill-opacity:1;fill-rule:nonzero;stroke:none"
                 id="path1227"
                 inkscape:connector-curvature="0" />
              <path
                 d="m 1369.61,125.199 c -32.11,0 -51.25,-25.16 -51.25,-57.6209 0,-32.457 19.14,-57.61716 51.25,-57.61716 32.11,0 51.25,25.16016 51.25,57.61716 0,32.4609 -19.14,57.6209 -51.25,57.6209 m 0,-100.6287 c -22.19,0 -31.88,19.918 -31.88,43.0078 0,23.0821 9.69,42.9729 31.88,42.9729 22.23,0 31.91,-19.8908 31.91,-42.9729 0,-23.0898 -9.68,-43.0078 -31.91,-43.0078"
                 style="fill:#ffffff;fill-opacity:1;fill-rule:nonzero;stroke:none"
                 id="path1229"
                 inkscape:connector-curvature="0" />
              <path
                 d="m 1458.44,68.0117 c 0,27.9297 16.05,42.5393 36.95,42.5393 10.98,0 20.66,-2.742 28.59,-6.641 l 1.76,14.641 c -6.6,3.437 -17.15,6.648 -28.83,6.648 -32.96,0 -57.81,-20.82 -57.81,-59.6873 0,-36.5625 22.42,-55.55076 52.11,-55.55076 13.2,0 22.66,1.59766 33.44,6.41016 l -1.76,14.6094 c -9.26,-4.3399 -19.14,-6.4102 -28.4,-6.4102 -21.33,0 -36.05,13.9492 -36.05,43.4414"
                 style="fill:#ffffff;fill-opacity:1;fill-rule:nonzero;stroke:none"
                 id="path1231"
                 inkscape:connector-curvature="0" />
              <path
                 d="m 1617.66,30.5508 0.62,-18.3203 h 17.85 V 122.891 h -18.47 V 62.0703 c 0,-22.8515 -13.44,-36.5586 -29.93,-36.5586 -17.14,0 -21.32,10.0391 -21.32,31.3281 v 66.0512 h -18.48 V 50.8594 c 0,-26.9492 11.87,-40.89846 34.53,-40.89846 15.82,0 27.27,9.14066 34.73,20.58986 h 0.47"
                 style="fill:#ffffff;fill-opacity:1;fill-rule:nonzero;stroke:none"
                 id="path1233"
                 inkscape:connector-curvature="0" />
              <path
                 d="M 1799.49,80.5898 V 12.2305 h 18.48 v 74.3281 c 0,24.6914 -11.02,38.6404 -32.11,38.6404 -15.2,0 -27.27,-10.078 -34.3,-24.929 h -0.66 c -4.18,15.55 -13.01,24.929 -29.92,24.929 -15.2,0 -24.85,-8.48 -32.35,-20.59 h -0.43 l -0.66,18.282 h -17.81 V 12.2305 h 18.47 v 56.25 c 0,24.9179 10.55,41.1675 27.07,41.1675 13.83,0 19.34,-10.0777 19.34,-29.0582 V 12.2305 h 18.48 v 56.25 c 0,25.3906 10.54,41.1675 27.07,41.1675 13.82,0 19.33,-10.0777 19.33,-29.0582"
                 style="fill:#ffffff;fill-opacity:1;fill-rule:nonzero;stroke:none"
                 id="path1235"
                 inkscape:connector-curvature="0" />
              <path
                 d="m 1935.04,63.2383 c 0.43,4.1015 0.66,7.543 0.66,10.9414 0,28.3593 -14.29,51.0193 -41.79,51.0193 -29.69,0 -51.45,-25.6287 -51.45,-59.6873 0,-37.5 21.76,-55.55076 51.45,-55.55076 13.2,0 23.08,2.02736 33.43,6.41016 l -1.75,14.6094 c -8.13,-4.1016 -19.81,-6.4102 -29.03,-6.4102 -21.33,0 -35.19,13.5195 -35.62,38.668 h 74.1 m -42.66,47.3127 c 16.29,0 25.08,-13.9494 25.08,-32.2307 h -55.66 c 2.65,19.4102 12.97,32.2307 30.58,32.2307"
                 style="fill:#ffffff;fill-opacity:1;fill-rule:nonzero;stroke:none"
                 id="path1237"
                 inkscape:connector-curvature="0" />
              <path
                 d="m 1980.31,104.609 -0.66,18.282 h -17.81 V 12.2305 h 18.47 v 60.8203 c 0,22.8906 13.4,36.5972 29.92,36.5972 17.15,0 21.33,-10.0777 21.33,-31.3277 V 12.2305 h 18.48 v 72.0312 c 0,26.9883 -11.88,40.9373 -34.53,40.9373 -15.86,0 -27.27,-9.148 -34.77,-20.59 h -0.43"
                 style="fill:#ffffff;fill-opacity:1;fill-rule:nonzero;stroke:none"
                 id="path1239"
                 inkscape:connector-curvature="0" />
              <path
                 d="m 2132.46,122.891 h -25.51 v 24.488 h -18.47 v -24.488 h -16.92 v -14.61 h 16.92 V 39.4492 c 0,-20.1094 10.54,-29.48826 27.73,-29.48826 8.99,0 14.96,0.89846 19.57,2.96876 l -1.99,13.9492 c -3.75,-1.6094 -7.7,-2.3086 -11.88,-2.3086 -10.78,0 -14.96,6.4102 -14.96,19.6914 v 64.0193 h 25.51 v 14.61"
                 style="fill:#ffffff;fill-opacity:1;fill-rule:nonzero;stroke:none"
                 id="path1241"
                 inkscape:connector-curvature="0" />
              <path
                 d="m 2227.73,12.2305 v 69.9609 h 53.44 v 15.5391 h -53.44 v 53.9885 h 60.94 v 15.551 h -79.41 V 12.2305 h 18.47"
                 style="fill:#ffffff;fill-opacity:1;fill-rule:nonzero;stroke:none"
                 id="path1243"
                 inkscape:connector-curvature="0" />
              <path
                 d="m 2355.47,125.199 c -32.11,0 -51.21,-25.16 -51.21,-57.6209 0,-32.457 19.1,-57.61716 51.21,-57.61716 32.11,0 51.25,25.16016 51.25,57.61716 0,32.4609 -19.14,57.6209 -51.25,57.6209 m 0,-100.6287 c -22.19,0 -31.88,19.918 -31.88,43.0078 0,23.0821 9.69,42.9729 31.88,42.9729 22.23,0 31.91,-19.8908 31.91,-42.9729 0,-23.0898 -9.68,-43.0078 -31.91,-43.0078"
                 style="fill:#ffffff;fill-opacity:1;fill-rule:nonzero;stroke:none"
                 id="path1245"
                 inkscape:connector-curvature="0" />
              <path
                 d="m 2501.25,30.5508 0.66,-18.3203 h 17.82 V 122.891 h -18.48 V 62.0703 c 0,-22.8515 -13.4,-36.5586 -29.88,-36.5586 -17.15,0 -21.33,10.0391 -21.33,31.3281 v 66.0512 h -18.48 V 50.8594 c 0,-26.9492 11.88,-40.89846 34.53,-40.89846 15.82,0 27.27,9.14066 34.73,20.58986 h 0.43"
                 style="fill:#ffffff;fill-opacity:1;fill-rule:nonzero;stroke:none"
                 id="path1247"
                 inkscape:connector-curvature="0" />
              <path
                 d="m 2571.84,104.609 -0.67,18.282 h -17.81 V 12.2305 h 18.48 v 60.8203 c 0,22.8906 13.39,36.5972 29.92,36.5972 17.15,0 21.33,-10.0777 21.33,-31.3277 V 12.2305 h 18.47 v 72.0312 c 0,26.9883 -11.87,40.9373 -34.53,40.9373 -15.86,0 -27.26,-9.148 -34.76,-20.59 h -0.43"
                 style="fill:#ffffff;fill-opacity:1;fill-rule:nonzero;stroke:none"
                 id="path1249"
                 inkscape:connector-curvature="0" />
              <path
                 d="m 2748.63,105.738 c -7.93,13.524 -19.37,19.461 -34.33,19.461 -28.6,0 -47.93,-24.687 -47.93,-59.6873 0,-33.4023 17.38,-55.55076 46.64,-55.55076 15.39,0 27.26,7.30856 35.62,19.41796 h 0.43 l 0.67,-17.1484 h 17.81 V 176.879 h -18.48 v -71.141 h -0.43 m 0.43,-44.7966 c 0,-19.2226 -11.44,-36.3711 -30.35,-36.3711 -21.33,0 -32.97,17.3789 -32.97,42.7695 0,26.0586 11.21,43.2112 32.54,43.2112 16.92,0 30.78,-15.0822 30.78,-36.3713 V 60.9414"
                 style="fill:#ffffff;fill-opacity:1;fill-rule:nonzero;stroke:none"
                 id="path1251"
                 inkscape:connector-curvature="0" />
              <path
                 d="m 2838.16,125.199 c -10.78,0 -21.52,-1.84 -32.96,-6.41 l 1.75,-14.648 c 10.78,4.339 19.57,6.41 28.6,6.41 16.25,0 23.08,-9.852 23.08,-25.3908 v -3.211 c -5.04,0.9414 -9.88,1.4102 -17.58,1.4102 -27.07,0 -47.53,-13.9492 -47.53,-38.1992 0,-22.6211 16.05,-35.19926 33.24,-35.19926 14.06,0 25.7,7.53906 31.44,19.41796 h 0.43 l 0.67,-17.1484 h 17.81 v 75 c 0,24.9175 -14.3,37.9685 -38.95,37.9685 m 20.47,-65.3982 c 0,-21.9492 -10.78,-35.2305 -26.4,-35.2305 -11.21,0 -18.91,8.4805 -18.91,21.9492 0,14.6524 9.02,24.2618 30.59,24.2618 5.5,0 10.31,-0.7032 14.72,-1.3711 v -9.6094"
                 style="fill:#ffffff;fill-opacity:1;fill-rule:nonzero;stroke:none"
                 id="path1253"
                 inkscape:connector-curvature="0" />
              <path
                 d="m 2959.41,122.891 h -25.54 v 24.488 h -18.48 v -24.488 h -16.91 v -14.61 h 16.91 V 39.4492 c 0,-20.1094 10.59,-29.48826 27.73,-29.48826 9.03,0 14.97,0.89846 19.58,2.96876 l -2,13.9492 c -3.71,-1.6094 -7.69,-2.3086 -11.87,-2.3086 -10.78,0 -14.96,6.4102 -14.96,19.6914 v 64.0193 h 25.54 v 14.61"
                 style="fill:#ffffff;fill-opacity:1;fill-rule:nonzero;stroke:none"
                 id="path1255"
                 inkscape:connector-curvature="0" />
              <path
                 d="m 2986.37,12.2305 h 18.47 V 122.891 h -18.47 V 12.2305 m 9.22,126.9105 c 6.4,0 11.44,5.238 11.44,11.879 0,6.64 -5.04,11.91 -11.44,11.91 -6.37,0 -11.41,-5.27 -11.41,-11.91 0,-6.641 5.04,-11.879 11.41,-11.879"
                 style="fill:#ffffff;fill-opacity:1;fill-rule:nonzero;stroke:none"
                 id="path1257"
                 inkscape:connector-curvature="0" />
              <path
                 d="m 3081.88,125.199 c -32.11,0 -51.26,-25.16 -51.26,-57.6209 0,-32.457 19.15,-57.61716 51.26,-57.61716 32.1,0 51.24,25.16016 51.24,57.61716 0,32.4609 -19.14,57.6209 -51.24,57.6209 m 0,-100.6287 c -22.19,0 -31.88,19.918 -31.88,43.0078 0,23.0821 9.69,42.9729 31.88,42.9729 22.22,0 31.91,-19.8908 31.91,-42.9729 0,-23.0898 -9.69,-43.0078 -31.91,-43.0078"
                 style="fill:#ffffff;fill-opacity:1;fill-rule:nonzero;stroke:none"
                 id="path1259"
                 inkscape:connector-curvature="0" />
              <path
                 d="m 3177.54,104.609 -0.66,18.282 h -17.82 V 12.2305 h 18.48 v 60.8203 c 0,22.8906 13.4,36.5972 29.88,36.5972 17.19,0 21.37,-10.0777 21.37,-31.3277 V 12.2305 h 18.48 v 72.0312 c 0,26.9883 -11.92,40.9373 -34.54,40.9373 -15.85,0 -27.3,-9.148 -34.76,-20.59 h -0.43"
                 style="fill:#ffffff;fill-opacity:1;fill-rule:nonzero;stroke:none"
                 id="path1261"
                 inkscape:connector-curvature="0" />
              <path
                 d="m 375.391,633.949 c -6.012,0.153 -11.993,-3.64 -14.34,-9.109 -2.34,-5.461 -0.973,-12.301 3.328,-16.481 l 129.57,-130 c 4.172,-4.179 10.973,-5.589 16.481,-3.359 5.55,2.23 9.449,7.891 9.492,13.75 v 130.23 c 0,7.86 -7.223,15 -15.192,14.969 z"
                 style="fill:#ffffff;fill-opacity:1;fill-rule:evenodd;stroke:none"
                 id="path1263"
                 inkscape:connector-curvature="0" />
              <path
                 d="M 19.1406,633.949 C 11.1719,633.828 3.98047,626.559 3.98047,618.59 V 25.3516 c 0,-7.9727 7.19143,-15.2735 15.16013,-15.39066 H 504.531 c 8.047,0 15.391,7.30856 15.391,15.39066 V 407.379 c 0,4.031 -1.641,8.051 -4.492,10.902 L 305.469,629.262 c -2.809,2.929 -6.84,4.648 -10.899,4.687 z m 15.3477,-30.75 H 288.121 L 489.18,401.172 V 40.6992 H 34.4883 Z"
                 style="fill:#ffffff;fill-opacity:1;fill-rule:evenodd;stroke:none"
                 id="path1265"
                 inkscape:connector-curvature="0" />
            </g>
            <rect
               style="opacity:1;fill:#ffffff;fill-opacity:1;fill-rule:nonzero;stroke:none;stroke-width:0.58471513;stroke-linecap:square;stroke-linejoin:round;stroke-miterlimit:4;stroke-dasharray:none;stroke-opacity:1;paint-order:markers fill stroke"
               id="rect1269"
               width="3.6932847"
               height="50.545036"
               x="325.01331"
               y="101.63961" />
          </g>
          <g
             id="g1311"
             transform="translate(-10.583333,-2.2334396)">
            <g
               transform="translate(0,10.719767)"
               id="g1305">
              <g
                 id="g1295"
                 transform="matrix(0.0810453,0,0,-0.0810453,47.366839,139.93621)">
                <path
                   d="M 3637.1319,633.94912 V 439.03156 h 125.6613 v 29.60565 h -87.3069 v 165.31191 h -38.3544"
                   style="fill:#ffffff;fill-opacity:1;fill-rule:nonzero;stroke:none;stroke-width:0.53077644"
                   id="path1273"
                   inkscape:connector-curvature="0" />
                <path
                   d="m 3785.9935,439.03156 h 38.3592 v 140.28262 h -38.3592 V 439.03156 m 19.1822,152.37052 c 12.0221,0 22.0379,9.76522 22.0379,22.12223 0,12.08578 -10.0158,22.14346 -22.0379,22.14346 -12.3193,0 -22.0431,-10.05768 -22.0431,-22.14346 0,-12.35701 9.7238,-22.12223 22.0431,-22.12223"
                   style="fill:#ffffff;fill-opacity:1;fill-rule:nonzero;stroke:none;stroke-width:0.53077644"
                   id="path1275"
                   inkscape:connector-curvature="0" />
                <path
                   d="m 3891.1562,562.93495 h -0.5626 v 83.07659 h -38.3752 V 439.03156 h 37.5047 l 0.8705,16.37976 h 0.5626 c 12.0274,-13.49764 24.0495,-19.26134 43.8103,-19.26134 37.218,0 61.8248,33.65016 61.8248,75.61281 0,40.53593 -22.0378,70.43563 -60.1051,70.43563 -20.3394,0 -32.3668,-6.03546 -45.53,-19.26347 m -0.5626,-50.58777 c 0,24.13387 10.865,40.24347 31.4962,40.24347 22.8924,0 34.336,-16.37923 34.336,-43.12559 0,-26.45973 -11.157,-43.68714 -33.7733,-43.68714 -19.7608,0 -32.0589,15.50875 -32.0589,40.24134 v 6.32792"
                   style="fill:#ffffff;fill-opacity:1;fill-rule:nonzero;stroke:none;stroke-width:0.53077644"
                   id="path1277"
                   inkscape:connector-curvature="0" />
                <path
                   d="m 4099.7354,582.19842 c -18.3065,-1.14277 -35.785,-12.35754 -43.7891,-27.88859 h -0.5838 l -0.8493,25.00435 h -37.5046 V 439.03156 h 38.3539 v 52.89134 c 0,28.17892 5.1644,38.23236 14.039,44.55815 7.7122,5.47337 16.8787,7.7711 29.4847,8.35548 l 0.8492,37.36189"
                   style="fill:#ffffff;fill-opacity:1;fill-rule:nonzero;stroke:none;stroke-width:0.53077644"
                   id="path1279"
                   inkscape:connector-curvature="0" />
                <path
                   d="m 4240.8901,517.50579 c 0,34.79293 -21.1939,64.69263 -57.8281,64.69263 -44.1022,0 -72.4404,-30.47825 -72.4404,-76.75771 0,-45.13669 29.214,-69.29073 72.4404,-69.29073 20.3181,0 34.6438,3.17192 48.1043,9.20737 l -4.0233,28.75747 c -12.5847,-5.18568 -25.4826,-8.3369 -39.2085,-8.3369 -23.2002,0 -38.0885,10.63622 -39.5163,32.46653 h 90.7469 c 1.1624,5.18515 1.725,13.23225 1.725,19.26134 m -61.8302,35.08486 c 16.608,0 24.3202,-13.51782 24.9041,-27.88647 h -54.118 c 2.8609,16.08731 14.039,27.88647 29.2139,27.88647"
                   style="fill:#ffffff;fill-opacity:1;fill-rule:nonzero;stroke:none;stroke-width:0.53077644"
                   id="path1281"
                   inkscape:connector-curvature="0" />
                <path
                   d="m 4357.3477,636.80788 c -51.5224,0 -93.8996,-37.65169 -93.8996,-100.32683 0,-62.65869 42.3772,-100.33107 93.8996,-100.33107 51.5437,0 93.9209,37.67238 93.9209,100.33107 0,62.67514 -42.3772,100.32683 -93.9209,100.32683 m 0,-19.53045 c 38.3752,0 67.5679,-28.75747 67.5679,-80.79638 0,-52.02033 -29.1927,-80.7778 -67.5679,-80.7778 -38.3592,0 -67.5519,28.75747 -67.5519,80.7778 0,52.03891 29.1927,80.79638 67.5519,80.79638"
                   style="fill:#ffffff;fill-opacity:1;fill-rule:nonzero;stroke:none;stroke-width:0.53077644"
                   id="path1283"
                   inkscape:connector-curvature="0" />
                <path
                   d="m 4487.9293,587.09111 v -8.91704 h -22.6216 V 559.7832 h 22.6216 V 439.03156 h 24.0495 V 559.7832 h 35.493 v 18.39087 h -35.493 v 12.64946 c 0,25.00435 10.5943,39.65855 29.7713,39.65855 8.8746,0 14.5963,-1.42831 20.0527,-3.43943 l 2.277,17.82878 c -5.1591,2.01112 -14.8882,4.02435 -22.6217,4.02435 -34.0599,0 -53.5288,-22.14558 -53.5288,-61.80467"
                   style="fill:#ffffff;fill-opacity:1;fill-rule:nonzero;stroke:none;stroke-width:0.53077644"
                   id="path1285"
                   inkscape:connector-curvature="0" />
                <path
                   d="m 4567.8749,587.09111 v -8.91704 h -22.6217 V 559.7832 h 22.6217 V 439.03156 h 24.0495 V 559.7832 h 35.4983 v 18.39087 h -35.4983 v 12.64946 c 0,25.00435 10.5943,39.65855 29.7765,39.65855 8.8746,0 14.5964,-1.42831 20.0474,-3.43943 l 2.2824,17.82878 c -5.1432,2.01112 -14.8883,4.02435 -22.6217,4.02435 -34.0652,0 -53.5341,-22.14558 -53.5341,-61.80467"
                   style="fill:#ffffff;fill-opacity:1;fill-rule:nonzero;stroke:none;stroke-width:0.53077644"
                   id="path1287"
                   inkscape:connector-curvature="0" />
                <path
                   d="m 4655.2885,439.03156 h 24.0494 v 139.14251 h -24.0494 V 439.03156 m 12.022,159.54608 c 8.2961,0 14.8883,6.61189 14.8883,14.94667 0,8.33266 -6.5922,14.95091 -14.8883,14.95091 -8.3119,0 -14.8829,-6.61825 -14.8829,-14.95091 0,-8.33478 6.571,-14.94667 14.8829,-14.94667"
                   style="fill:#ffffff;fill-opacity:1;fill-rule:nonzero;stroke:none;stroke-width:0.53077644"
                   id="path1289"
                   inkscape:connector-curvature="0" />
                <path
                   d="m 4729.3265,509.17313 c 0,35.07902 20.9019,53.47148 48.0989,53.47148 14.331,0 26.9157,-3.43996 37.2181,-8.33478 l 2.3035,18.39246 c -8.6039,4.30832 -22.3297,8.35336 -37.5099,8.35336 -42.9345,0 -75.3013,-26.16727 -75.3013,-75.03639 0,-46.00717 29.2139,-69.86928 67.8598,-69.86928 17.1653,0 29.4846,2.01111 43.5183,8.06727 l -2.2982,18.39034 c -12.0274,-5.45479 -24.9041,-8.04657 -36.9261,-8.04657 -27.765,0 -46.9631,17.54269 -46.9631,54.61211"
                   style="fill:#ffffff;fill-opacity:1;fill-rule:nonzero;stroke:none;stroke-width:0.53077644"
                   id="path1291"
                   inkscape:connector-curvature="0" />
                <path
                   d="m 4952.5816,503.13768 c 0.5839,5.18515 0.8758,9.49559 0.8758,13.81027 0,35.6427 -18.6196,64.1077 -54.4046,64.1077 -38.6511,0 -66.9946,-32.19689 -66.9946,-75.03639 0,-47.14781 28.3435,-69.86928 66.9946,-69.86928 17.1866,0 30.0632,2.58912 43.5184,8.06727 l -2.3036,18.39034 c -10.5943,-5.18516 -25.7479,-8.04657 -37.7753,-8.04657 -27.7809,0 -45.822,16.95777 -46.3793,48.57666 h 96.4686 m -55.5404,59.50693 c 21.1886,0 32.6321,-17.54269 32.6321,-40.53592 h -72.4191 c 3.4394,24.4465 16.8946,40.53592 39.787,40.53592"
                   style="fill:#ffffff;fill-opacity:1;fill-rule:nonzero;stroke:none;stroke-width:0.53077644"
                   id="path1293"
                   inkscape:connector-curvature="0" />
              </g>
              <text
                 xml:space="preserve"
                 style="font-style:normal;font-variant:normal;font-weight:normal;font-stretch:normal;font-size:16.84106827px;line-height:1.25;font-family:vegur;-inkscape-font-specification:vegur;text-align:start;text-anchor:start;opacity:1;fill:#ffffff;fill-opacity:1;fill-rule:nonzero;stroke:none;stroke-width:5.83470106;stroke-linecap:square;stroke-linejoin:round;stroke-miterlimit:4;stroke-dasharray:none;stroke-opacity:1;paint-order:markers fill stroke"
                 x="341.15533"
                 y="121.58047"
                 id="text1299"><tspan
                   sodipodi:role="line"
                   id="tspan1297"
                   x="341.15533"
                   y="121.58047"
                   style="stroke-width:5.83470106">Month</tspan></text>
              <text
                 id="text1303"
                 y="121.60077"
                 x="394.83206"
                 style="font-style:normal;font-variant:normal;font-weight:normal;font-stretch:normal;font-size:16.84106827px;line-height:1.25;font-family:vegur;-inkscape-font-specification:vegur;text-align:start;text-anchor:start;opacity:1;fill:#ffffff;fill-opacity:1;fill-rule:nonzero;stroke:none;stroke-width:5.83470106;stroke-linecap:square;stroke-linejoin:round;stroke-miterlimit:4;stroke-dasharray:none;stroke-opacity:1;paint-order:markers fill stroke"
                 xml:space="preserve"><tspan
                   style="font-style:normal;font-variant:normal;font-weight:bold;font-stretch:normal;font-family:vegur;-inkscape-font-specification:'vegur Bold';stroke-width:5.83470106"
                   y="121.60077"
                   x="394.83206"
                   id="tspan1301"
                   sodipodi:role="line">Albania</tspan></text>
            </g>
          </g>
        </g>
      </g>
    </g>
  </g>
</svg>
